<?xml version="1.0" encoding="utf-8"?>
<!-- Generator: Adobe Illustrator 28.2.0, SVG Export Plug-In . SVG Version: 6.00 Build 0)  -->
<svg version="1.1" id="Layer_1" xmlns="http://www.w3.org/2000/svg" xmlns:xlink="http://www.w3.org/1999/xlink" x="0px" y="0px"
	 viewBox="0 0 984.6 721.72" style="enable-background:new 0 0 984.6 721.72;" xml:space="preserve">
<style type="text/css">
	.st0{fill:#FBFBFB;}
</style>
<g>
	<path class="st0" d="M889.62,241.36c7.81-0.47,11.6,4.85,15.09,10.66c1.19,1.99,2.65,3.81,3.99,5.71c2.39,3.53,4.8,7.04,7.15,10.59
		c1.56,2.36,3.3,5.09,1.06,7.6c-2.2,2.46-5.2,1.09-7.63-0.14c-6.05-3.06-12-6.34-17.98-9.53c-4.57-2.14-6.08-9.79-13.14-7.43
		c-2.53-0.01-5.06-0.03-7.6-0.04c-1.3-0.01-2.59-0.01-3.89-0.02c-3.97-0.11-7.95-0.22-11.92-0.34c-0.59-0.12-1.17-0.25-1.76-0.37
		c-12.03-1.08-24.08-0.57-36.12-0.28c-12.51-1.06-24.84-1.05-35.94,6.24c-13.19,5.03-26.74,9.17-39.01,16.43
		c-7.29,2.12-14.14,5.1-19.91,10.24c-5.62,2.25-10.61,5.54-15.29,9.36c-2.03,1.11-4.02,2.3-6.09,3.32
		c-10.87,5.37-18.35,5.69-25.98-4.72c-1.73-2.35-4.09-4.23-6.16-6.33c-1.18-2.51-2.31-5.31-5.51-5.49
		c-9.64-0.53-17.14-6.53-25.65-9.93c-1.54-0.62-3.17-1.02-4.76-1.52c-5.04-1.99-9.14-6.3-14.98-6.3c-7.39-0.01-14.78,0.06-22.18,0.1
		c-11.94-0.06-23.88-0.12-35.82-0.18c-12.47,0.64-24.77-1.88-37.2-1.99c-12.52,1.47-24.42-4.86-36.97-3.06
		c-13.09-0.56-24.42,7.11-37.18,8.08c-11.97,4.26-22.26,11.46-32.33,18.99c-12.3,9.19-25.61,16.78-38.37,25.23
		c-10.92,4.98-22.21,7.03-34.09,4.46c-12.43-8.6-18.7-6.58-27.82,9c-3.88,4.05-7.55,8.28-10.63,13
		c-10.77,9.14-23.39,13.72-37.2,15.3c-2.53-0.15-5.07-0.25-7.59-0.48c-6.28-0.57-12.91,0.4-18.57-3.23
		c-13.36-8.57-28.73-13.75-40.66-24.7c-2.36-2.43-4.72-4.86-7.08-7.29c-4.34-12.48-13.55-19.13-25.84-22.09
		c-0.8-0.36-1.61-0.71-2.41-1.07c-1.97-1.39-3.97-2.69-6.43-3.02c-2.88-2.52-5.76-5.04-8.64-7.56c-3.69-3.17-7.77-5.99-10.99-9.58
		c-4.89-5.44-10.88-8.77-17.52-11.22c-2.62-2.48-5.99-3.41-9.31-3.58c-10.12-0.51-20.25-1.39-30.39-0.42
		c-2.69-0.36-5.18,0.56-7.09,2.17c-8.54,7.22-18.79,11.14-28.75,15.63c-7.8,2.08-14.91,0.66-21.76-4.51
		c6.55-4.19,14.39-3.96,20.89-7.42c13.12-4.43,26.4-8.48,39.57-12.64c10.68-3.37,22.64-5.58,34.32-2.25
		c3.29,1.28,6.57,2.63,10.16,2.83c11.38,2.16,19.21,10.41,28.13,16.8c4.06,3.18,9.8,1.84,13.72,4.77
		c12.97,9.68,27.37,17.67,36.99,31.42c4.35,6.22,10.5,10.07,17.63,12.17c5.98,1.77,11.59,4.28,16.96,7.42
		c3.27,3.04,6.41,6.24,9.84,9.09c4.37,3.64,8.52,7.95,14.97,7.33c5.6-0.97,12.03,1.09,16.41-4.42c2.78-3.5,5.45-7.09,8.17-10.64
		c4.17-4.43,8.35-8.86,12.52-13.28c11.01-7.35,20.7-17.74,35.72-15.88c8.95,0.05,17.89,0.13,26.84,0.14c2.88,0,5.67-0.89,7.55-3.02
		c11.33-12.87,26.52-20,40.88-28.38c8.62-4.58,17.23-9.17,25.85-13.75c2.91,0.03,5.62-0.76,8.23-1.99c2.61-0.76,5.19-1.72,7.85-2.25
		c9.19-1.82,17.86-6.04,27.41-6.19c12.41,1.67,24.62,4.73,37.19,5.17c11.91,0.66,23.81,0.26,35.71-0.14
		c12.06-0.11,23.96,2,35.95,2.75c13.51,3.81,27.47,2.9,41.23,4.04c5.16,0.43,10.68,0.93,14.41,4.45
		c5.66,5.35,12.67,8.62,18.45,13.67c14.16,16.97,24.24,18.94,39.74,7.74c4.2-8.14,12.35-11.32,19.58-15.42
		c9.47-5.38,19.98-10.57,30.55-9.7c10.62,0.88,19.18-1.02,27.39-7.09c11.87-6.64,24.53-9.55,38.13-10.8
		c9.69-0.88,19.4-0.03,29.01-1.46C865.01,240.53,877.32,240.95,889.62,241.36z"/>
	<path class="st0" d="M484.16,22.01c5.41,13.43,12.47,26.06,18.75,39.06c0.98,2.02,2.5,2.76,4.47,3c5.02,0.6,10.05,1.16,15.08,1.73
		c7.76,1.32,15.52,2.6,23.27,3.99c1.7,0.3,4.11-0.46,4.5,2.43c-10.45,9.61-20.69,19.45-30.19,30.04c-3.31,1.31-2.59,3.99-2.15,6.55
		c2.11,12.07,4.22,24.14,6.34,36.22c-0.29,2.06,1.63,4.21-0.24,6.2c-4.77-2.5-9.54-4.99-14.32-7.49
		c-7.53-4.01-15.07-8.02-22.6-12.03c-1.79-1.81-3.78-2.57-6.2-1.25c-7.91,4.31-16.34,7.64-23.63,13.08
		c-3.36,1.02-6.5,2.48-9.18,4.84c-0.95,0.34-2.02,0.5-2.82,1.06c-4.36,3.07-4.42,0.04-4.44-3.11c3-12.37,5.22-24.87,6.47-37.55
		c2.37-3.65,0.02-5.82-2.36-8.14c-10.01-9.77-19.96-19.61-29.92-29.43c0.22-0.25,0.33-0.54,0.31-0.87
		c11.07-1.43,22.16-2.79,33.07-5.24c2.54-0.19,5.1-0.32,7.63-0.58c2.95-0.3,5.8-0.48,7.34-3.96c3.82-8.6,7.94-17.06,11.94-25.58
		c1.82-3.47,3.58-6.96,5.48-10.38C481.49,23.29,481.73,21.09,484.16,22.01z"/>
	<path class="st0" d="M378.13,102.59c5.35-1.15,10.71-2.3,17.5-3.77c-3.43,8.27-5.94,15.76-9.57,22.65
		c-3.26,6.19-2.98,11.21,1.58,16.33c1.97,2.21,3.56,4.78,5.32,7.18c1.57,2.79,3.19,5.55,4.7,8.37c0.77,1.44,2.73,2.86,1.76,4.49
		c-1.14,1.91-3.47,0.81-5.25,0.69c-5.07-0.33-10.13-0.86-15.19-1.3c-7.63-2.36-13.86-1.45-18.62,6.14
		c-3.84,6.13-8.79,11.54-13.25,17.27c-0.8,0.13-1.6,0.25-2.4,0.38c-0.45-2.23-0.38-4.6-1.73-6.59c-1.41-6.71-3.06-13.38-4.16-20.14
		c-0.72-4.4-3.01-6.51-7.03-7.96c-8.23-2.96-16.27-6.43-25.7-10.22c8.25-5.07,14.9-9.66,22.02-13.36c5.45-2.83,8.11-6.49,7.08-12.65
		c0.61-6.92,1.25-13.84,1.81-20.77c0.21-2.61,0.39-4.98,3.83-2.58c4.29,3.8,9.24,7.07,12.74,11.51
		C360.73,107.37,368.95,106.94,378.13,102.59z"/>
	<path class="st0" d="M572.97,107.81c-0.76-2.79-1.53-5.59-2.53-9.27c9.22,2.23,17.74,4.29,26.26,6.35
		c3.9,2.13,6.99,1.33,10.22-1.86c5.64-5.55,11.76-10.59,17.6-15.93c2.61-2.39,3.84-2.18,4.12,1.59c0.5,6.64,1.16,13.28,1.76,19.91
		c0.54,3.78-1.66,8.38,3.17,10.88c8.3,5.33,16.6,10.66,25.79,16.56c-6.66,2.89-12.23,5.31-17.79,7.72
		c-3.66,1.45-7.32,2.9-10.97,4.35c-3.05,0.62-2.85,3.37-3.34,5.51c-2.07,8.86-4,17.75-5.99,26.63c-0.67,0.26-1.34,0.52-2.01,0.79
		c-5.96-7.42-11.93-14.83-17.87-22.27c-1.57-1.96-3.29-3.32-5.94-2.22c-8.02-0.38-15.89,1.26-23.84,1.86
		c-1.63,0.12-3.68,0.98-4.78-0.45c-1.25-1.64,0.67-3.07,1.4-4.48c1.45-2.81,3.09-5.53,4.64-8.29c2.8-4.06,5.59-8.11,8.39-12.17
		c1.13-1.64,1.85-3.24,0.86-5.37C579.02,121.06,577.32,113.81,572.97,107.81z"/>
	<path class="st0" d="M36.99,476.01c1.84-6.83,3.72-13.64,4.56-20.7c1.3-2.23,0.34-4.53,0.04-6.73c-0.68-4.93,1.51-8.44,4.94-11.48
		c6.28-1,11.85,0.22,16.15,5.34c2.59,5.73,2.49,11.61,0.91,17.56c-1.76,6.59-3.54,13.18-5.31,19.77
		c-2.88,11.95-5.75,23.91-8.63,35.86c-2.93,9.36-5,18.9-5.61,28.98c4.82-8.94,9.64-17.89,14.45-26.83
		c7.24-12.58,14.48-25.15,21.72-37.73c1.76-1.9,2.93-4.14,3.74-6.59c3.2-4.22,6.16-8.65,9.65-12.61c5.85-6.63,12.88-6.92,18.88-1.28
		c2.23,2.1,3.42,4.83,4.88,7.42c0.05,2.08,0.11,4.17,0.16,6.25c-0.87,1.65-1.01,3.41-0.73,5.22c-3.95,12.69-5.5,25.9-8.34,38.83
		c-3.66,13.06-6.77,26.23-8.51,39.66c0.64,0.26,1.29,0.52,1.93,0.78c6.31-11.3,12.63-22.6,18.94-33.9c1.46-2.58,2.92-5.15,4.38-7.73
		c6.89-12.19,15.35-23.44,21.16-36.27c4.88-5.78,8.39-12.4,11.69-19.17c4.29-5.51,7.59-11.63,10.84-17.79
		c2.99-4.62,5.98-9.23,8.96-13.85c4.08-6.33,9.52-9.45,17.14-7.42c7.83,4.6,10.53,11.7,9.83,20.48c-2.36,12.57-4.72,25.13-7.07,37.7
		c-2.27,6.2-3.22,12.71-4.39,19.18c-1.19,6.12-2.38,12.24-3.57,18.37c-3.28,11.87-5.16,23.98-6.29,36.23
		c-1.63,8.53-1.81,17.1-0.37,25.65c2.55,15.14,12.66,19.85,26.03,12.27c4.07-1.92,10.24-3.51,9.21-8.68
		c-1.95-9.79-1.44-19.5-1.68-29.26c2.24-13.08,6.54-25.47,12.24-37.39c1.01-1.77,2.02-3.54,3.03-5.31c0.09-0.44,0.18-0.89,0.27-1.33
		l0.06,0.38c7.32-10.7,15.28-20.85,24.52-29.94c13.87-11.82,28.95-21.35,47-25.23c13.42-1.9,26.26-0.33,38.22,6.5
		c6.66,4.84,11.8,10.94,15.18,18.52c0.49,5.17-0.58,10.04-2.18,14.97c-2.72,8.42-5.65,16.87-5.4,25.95
		c-2.33,1.23-1.73,3.74-2.15,5.64c-3.13,14.03-4.92,28.25-5.97,42.6c-0.67,9.18-0.59,17.63,9.3,22.07c-1.57,5-6.54,5.26-10.13,7.45
		c-6.59,0.45-12.22-1.16-15.68-7.44c-3.01-10.72-1.26-21.65-1.58-32.79c-7.35,10.31-14.19,20.87-23.14,29.7
		c-9.19,9.07-20.08,15.14-32.49,18.45c-7.87,0.35-15.75,0.89-23.53-1.06c-6.56-1.64-12.64-4.3-17.1-9.52
		c-3.08-3.61-5.11-3.11-7.93,0.21c-6.72,7.92-14.74,13.7-25.51,14.41c-21.11-1.98-29.07-9.48-32.09-29.7
		c-1.35-9.03-0.72-18.01-0.38-27.02c1.85-12.54,3.69-25.08,5.54-37.62c3.31-11.89,5.39-24.05,7.57-36.19
		c1.94-9.25,4.39-18.42,5.39-27.83c-0.52-0.23-1.05-0.46-1.57-0.69c-5.63,9.42-11.26,18.84-16.89,28.26
		c-2.23,3.91-4.45,7.82-6.68,11.73c-5.4,7.93-10.72,15.9-14.94,24.57c-14.27,23.57-29.64,46.52-41.03,71.76
		c-2.08,4.61-4.96,7.24-9.79,8.01c-2.51,0.4-4.98,1.06-7.47,1.61c-4.06-2.14-4.2-6.01-4.49-9.95c-0.83-11.54,2-22.63,3.93-33.83
		c1.5-4.16,2.4-8.46,2.89-12.85c2.72-7.52,4.57-15.24,5.22-23.23c3.2-12.2,5.63-24.5,5.05-37.33c-5.45,6.3-9.73,13.06-13.06,20.42
		c-3.33,4.02-5.82,8.53-7.88,13.32c-8.48,12.78-16.2,26.02-23.29,39.64c-7.25,11.83-14.61,23.61-17.12,37.65
		c-4.5,15.81-13.85,19.17-24.41,8.77c0.04-1.18,0.09-2.35,0.13-3.53c4.41-14.01,6.69-28.53,10.07-42.79
		c2.94-12.08,5.89-24.16,8.83-36.24c2.99-12.48,5.98-24.96,8.97-37.43c0.08-0.85,0.15-1.7,0.23-2.54
		C36.63,476.88,36.81,476.44,36.99,476.01z M303.7,463.12c-11.97,2.36-22.72,7.28-31.96,15.41c-1.32,1.12-2.63,2.23-3.95,3.35
		c-10.98,10.06-19.89,21.68-26,35.39c-6.17,11.34-10.13,23.33-10.46,36.39c-1.03,9.47,0.71,18.47,5.04,26.85
		c2.88,5.56,6.9,10.18,13.15,12.19c5.77,3.66,11.94,3.96,18.36,2.27c4.3-0.23,8.31-1.37,11.9-3.83c9.71-4.05,17.7-10.34,24.02-18.82
		c5.24-5.59,9.65-11.76,12.89-18.74c7.23-11.09,12.42-23.09,15.75-35.92c4.32-12.26,6.4-24.88,6.03-37.9
		c-0.27-4.35-2.64-7.64-5.72-10.26C324.24,462.23,314.35,460.76,303.7,463.12z"/>
	<path class="st0" d="M414.79,693.02c-8.64,4.22-17.48,7.3-27.34,6.87c-17.52-0.75-24.51-9.93-20.15-27.09
		c0.68-2.68,1.73-5.27,2.62-7.89c2.86-5.2,7.03-9.63,8.8-15.47c6.63-6.87,13.26-13.75,19.89-20.62
		c15.58-13.62,32.54-25.08,51.43-33.51c2.26-0.57,4.78-0.7,6.72-1.84c2.33-1.36,6.53,0.89,7.15-3.69
		c4.77-14.85,5.34-30.19,5.45-45.74c-6.9,9.91-13.75,19.57-21.26,28.72c-5.91,5.63-11.83,11.27-17.74,16.9
		c-10.34,6.73-20.68,13.6-33.44,14.38c-6.29,0.39-12.62-0.06-18.94-0.13c-7.2-3.54-14.58-6.8-19.9-13.22
		c-7.13-11.65-8.64-24.46-8-37.83c0.58-12.12,3.65-23.73,6.27-35.46c4.92-13.44,10.84-26.4,17.9-38.83
		c2.24-2.21,3.71-4.94,5.11-7.71c7.82-10.18,16.79-19.2,26.77-27.21c12.77-8.81,26.6-14.67,42.23-15.58
		c13.34,0.34,25.53,3.87,35.7,13.05c0.85,0.9,1.71,1.79,2.56,2.69c8.2,10.58,14.19,22.02,13.74,35.98
		c-4.35,10.83-6.6,22.2-8.55,33.65c-0.46,1.42-1.12,2.81-1.34,4.27c-3.08,20.17-6.09,40.34-9.12,60.52
		c-1.48,2.84-1.56,5.99-2.04,9.06c-4.01,12.78-8.03,25.56-12.04,38.34c-5.32,11.2-10.53,22.45-17.24,32.91
		c-1.06,1.53-2.13,3.06-3.19,4.59C437.57,674.67,427.75,685.56,414.79,693.02z M414.37,627.5c0,0-0.35,0.26-0.35,0.26
		c-13.25,10.1-24.92,21.63-32.55,36.81c-4.28,6.12-6.49,12.69-2.48,19.68c2.97,5.19,11.04,7.13,19.06,4.8
		c7.17-2.08,13.76-5.42,18.89-11.16c4.58-2.84,8.19-6.67,11.18-11.14c10.16-9.32,16.06-21.48,21.93-33.65
		c3.45-7.14,6.78-14.3,8-22.31c0.6-3.95-0.81-5.2-4.41-4.78c-1.9,0.22-3.82,0.43-5.42,1.66C434.99,610.9,424.6,619.05,414.37,627.5z
		 M477.6,479.79c2-12.57-1.31-23.34-10.34-32.37c-9.6-9.59-25.21-11.9-36.33-5.16c-6.4,0.72-11.12,4.71-15.98,8.43
		c-11.04,7.69-19.39,17.89-26.65,29.11c-4.72,7.79-9.38,15.61-11.64,24.6c-1.43,4.29-2.85,8.59-4.28,12.88
		c-4.29,11.76-5.25,23.93-4.42,36.33c0.46,10.62,1.71,21.01,8.65,29.71c0.33,0.54,0.57,1.16,0.99,1.6c9.51,9.7,21.79,10.48,37.4,2.4
		c8.75-3.33,15.89-9.12,22.2-15.82c15.15-16.05,25.89-34.96,34.04-55.44C475.8,504.41,483.79,493.37,477.6,479.79z"/>
	<path class="st0" d="M718.63,404.68c-3.11,12.55-6.21,25.1-9.32,37.65c-1.57,4.7-3.14,9.4-4.71,14.1c-3.13,7.8-6.27,15.6-9.4,23.39
		c-7.62,14.26-14.79,28.84-26.86,40.04c-5.18,2.96-10.24,6.36-16.1,7.67c-7.92,1.78-11.32,6.86-12.02,14.57
		c-0.35,3.85-1.34,7.64-0.66,11.55c-0.63,4.95-0.22,9.88,0.51,14.77c1.31,8.86,3.42,17.35,11.43,22.79
		c5.29,4.94,11.26,6.52,18.12,3.79c3.75-0.47,7.1-1.96,10.2-4.08c14.22-7.54,22-20.25,27.42-34.86c2.1-3.18,3.7-7.37,8.59-3.04
		c1.44,1.27,2.03-0.5,2.28-1.78c2.27-11.73,4.52-23.45,6.78-35.18c3.49-12.14,6.57-24.41,11.69-36.01
		c2.43-3.51,4.86-7.03,7.29-10.54c0.87-0.58,1.75-1.16,2.61-1.75c3.72-2.55,8.1-3.96,11.86-1.49c4.02,2.64,0.08,6.56-0.03,9.93
		c-13.3,24.16-20.56,50.39-25.84,77.3c-0.1,0.84-0.2,1.69-0.3,2.53c-0.16,0.45-0.32,0.89-0.48,1.34c-1.85,6.8-3.49,13.66-3.28,20.76
		c0.11,3.83,0.37,7.86,5.21,9.03c2.46,1.08,5.01,0.42,7.54,0.42c5,0,7.18,2.15,4.98,7.28c-1.19,1.29-2.38,2.58-3.58,3.87
		c-4.59,3.36-9.7,5.09-15.37,5.13c-1.96-0.99-3.96-1.76-6.22-1.45c-0.38-0.41-0.77-0.82-1.15-1.22c-1.1-3.42-2.19-6.84-3.29-10.25
		c-1.61-9.65-0.53-19.39-0.31-30.83c-4.27,6.94-7.6,12.34-10.92,17.74c-3.43,3.69-6.85,7.39-10.28,11.08
		c-7.91,6.01-16.19,11.35-25.75,14.33c-5.91,0.45-11.76,1.44-17.74,0.9c-6.85-0.62-12.52-3.66-17.67-8
		c-1.58-2.66-3.16-5.31-4.74-7.97c-2.46-9.63-3.35-19.41-2.56-29.32c1.1-13.85,2.29-27.68,3.44-41.53
		c3.47-5.92,3.12-12.78,4.63-19.19c1.88-6,3.53-12.05,4.33-18.31c3.43-12.51,6.87-25.02,10.3-37.53
		c3.97-11.65,7.94-23.3,11.91-34.95c3.29-8.16,6.58-16.33,9.87-24.49c3.3-4.32,5.5-9.24,7.67-14.19c3.26-4.51,6.49-9.04,9.78-13.52
		c4.63-6.31,11.16-9.82,18.24-12.5c10.95,0.83,14.01,3.66,15.97,15.16c0.54,3.15,0.61,6.37,0.89,9.56
		C723.4,380.02,720.85,392.33,718.63,404.68z M710.49,367.36c0.25-3.34-0.18-6.51-2.34-9.24c-2.44-4.34-5.72-2.58-8.52-0.82
		c-3.94,2.49-6.84,6.1-8.88,10.36c-7.31,11.32-10.73,24.3-15.37,36.76c-3.06,6.79-5.6,13.75-7.05,21.09
		c-2.74,5.21-4.13,10.89-5.53,16.56c-4.2,12.34-8.01,24.78-10.05,37.7c-3.35,9.36-4.49,19.19-5.82,28.96
		c-0.35,2.57-1.86,5.79,1.19,7.7c3.15,1.97,6.68,1.57,9.73-0.29c4.94-3.02,9.16-6.89,11.91-12.17c5.88-7.04,9.54-15.34,13.1-23.69
		c5.71-12.22,10.48-24.79,13.88-37.87c3.82-12.54,8.4-24.89,9.06-38.19l-0.25,0.09c1.78-1.46,1.49-3.43,1.28-5.37l-0.01,0.18
		C710.43,388.81,711.13,378.17,710.49,367.36z"/>
	<path class="st0" d="M880.3,442.41c4.51-1.32,8.41-3.9,12.45-6.19c11.03-4.01,22.27-6.96,34.13-6.69
		c9.41,1.67,18.85,3.64,26.01,10.53c4.03,3.88,7.27,4.29,11.13,0.42c4.54-1.89,8.54-0.48,12.35,2.06
		c-5.06,7.46-10.83,14.55-12.01,24.02c-0.55,4.42-2.18,8.71-1.68,13.27c-0.25,1.25-0.51,2.5-0.76,3.75
		c-1.25,5.42-3.34,10.19-9.35,11.67c-3.75,0.92-6.27,0.2-5.83-4.58c0.33-3.6,0.37-7.23,0.54-10.84c2.16-19.01-5.54-33.15-20.5-37.64
		c-14.51-4.18-27.05,0.24-38.61,9.01c-9.42,7.41-17.85,15.49-18.78,28.6c-1.62,5.02-0.58,9.85,1.62,14.31
		c3.97,8.07,11.13,12.67,18.74,16.66c5.11,3.52,10.69,6.01,16.65,7.62c6.23,3.98,13.39,5.73,20.14,8.48
		c5.85,2.91,11.82,5.58,17.5,8.78c7.45,4.2,14.27,9.2,17.09,17.99c1.28,16.72-8.02,27.25-20.56,35.89
		c-4.74,2.37-9.47,4.74-14.21,7.12c-12.01,3.55-24.23,6-36.66,7.38c-12.47-0.33-24.98-0.26-37.1-3.94
		c-7.37-4.4-14.69-6.66-23.03-1.81c-3.72,2.16-8.37,2.68-12.59,3.94c-11.97,1.75-23.96,2.02-35.99,0.62
		c-9.17-2.51-17.94-5.9-25.41-12.07c-9.73-10.89-9.96-23.75-7.57-37.16c3.61-12.44,9.46-23.96,14.45-35.83
		c8.24-14.29,16.54-28.54,26.43-41.74c8.23-10.99,17.73-20.29,31.69-23.39c1.72,0.01,3.44,0.01,5.16,0.02
		c0.83,0.12,1.66,0.24,2.49,0.37c13.55,3.71,19.68,13.56,21.72,26.8c-0.47,13.59-4.3,25.88-13.55,36.1
		c-6.05,5.6-12.74,10.25-20.06,13.99c-11.53,4.06-23.51,4.02-35.48,4.02c-4.1,0.34-9.33-4.45-11.99,2.35
		c-2.17,5.55-4.17,11.2-4.6,17.25c-3.39,16.13,1.52,27.76,14.94,35.34c1.17,1.23,2.52,2.08,4.25,2.22c0.72,0.44,1.39,1.05,2.17,1.3
		c12.44,3.97,24.65,2.5,36.88-1.26c4.11-1.26,5.95-2.09,3.87-7.21c-2.72-6.69-0.05-13.17,4.95-15.72
		c5.56-2.84,10.63-1.41,15.17,5.09c3.43,4.91,4.54,0.73,6.38-1.15c2.36-1.38,4.59-3.08,7.1-4.05c2.86-1.1,5.97-1.04,7.98,1.87
		c1.94,2.82,0.22,5.3-1.33,7.59c-1.83,2.7-4.47,4.46-7.24,6.05c-4.3,2.47-3.58,4.67,0.49,6.44c1.31,0.57,2.8,0.7,4.21,1.04
		c21.82,4.65,42.91,2.51,63.17-7.07c6.1-2.06,10.73-6.15,14.25-11.35c3.8-5.61,5.38-11.66,1.01-17.9
		c-3.51-6.13-9.74-8.36-15.62-11.09c-11.15-5.55-23.01-9.2-34.72-13.25c-9.64-4.83-19.73-8.91-27.8-16.47
		c-3.56-4.6-6.76-9.42-9.24-14.71c-2.53-9.41-1.85-18.6,1.88-27.58C862.03,459.65,870.06,450.14,880.3,442.41z M778.26,516.01
		c-3.85,6.99-3.85,6.99,2.83,8.56c5.07,0.56,10.13,1.5,15.21,1.62c23.8,0.54,43.12-22.72,38.93-46.65c0.18-2.85-0.59-5.51-1.61-8.11
		c-3.14-7.97-8.17-10.8-15.6-8.8c-7.75,2.84-12.07,9.45-16.79,15.62c-8.2,10.15-15.4,20.92-20.35,33.12
		C779.25,512.47,778.57,514.13,778.26,516.01z"/>
	<path class="st0" d="M498.71,516.14c6.69-12.92,14.66-24.93,24.73-35.44c10.73-10.06,22.27-18.92,35.94-24.59
		c12.09-4.27,24.41-6.29,37.18-3.75c8.84,2.5,17.03,6.2,23.75,12.77c4.22,4.13,6.63,9.28,8.55,14.74c-0.5,2.71-0.81,5.47-1.55,8.11
		c-2.69,9.66-5.82,19.21-6.91,29.25c-5.22,19.38-8.29,39.04-7.72,59.19c0.12,4.25,0.66,8.23,5.99,9.19
		c3.12,0.56,3.18,2.97,2.54,5.52c-10.78,6.01-16.46,5.84-23.81-0.73c0,0,0.18-0.09,0.18-0.09c-5.51-10.78-2.2-22.57-3.46-35.9
		c-8.3,13.83-16.5,25.4-27.18,34.9c-3.51,2.52-7.02,5.05-10.53,7.57c-10.59,5.73-21.77,9.01-33.9,8.42
		c-11.35-1.61-21.07-6.18-27.97-15.82c-5.59-9.51-7.4-19.84-6.86-30.78C488.44,543.72,493.37,529.89,498.71,516.14z M513.13,513.68
		c-7.93,14.88-12.36,30.5-9.74,47.59c1.28,13.27,5.68,24.51,19.08,29.88c15.34,5.27,27.83-1.05,39.68-9.97
		c10.49-6.78,17.93-16.27,23.71-27.24c11.96-18.39,18.82-38.86,23.65-60.09c1.03-4.53,1.51-9.36,0.08-14.05
		c-0.42-7.3-3.7-12.73-10.24-16.03c-13.6-7.43-26.78-5.05-39.78,1.73c-7.83,3.35-14.83,7.95-20.82,14.07
		c-7.91,6.57-14.52,14.25-19.43,23.37C516.64,506.16,514.28,509.56,513.13,513.68z"/>
	<path class="st0" d="M779.64,419.03c-5.76,6-12.99,7.67-20.9,7.09c-4.07-0.3-8.34-0.94-10.14-5.26c-1.73-4.14,0.14-7.93,2.56-11.33
		c0.86-1.2,1.98-2.21,2.99-3.3c8.37-4.56,16.82-6.52,25.51-0.79c0.03,0.31,0.19,0.51,0.48,0.61
		C782.58,410.48,781.6,414.78,779.64,419.03z"/>
</g>
</svg>
