<?xml version="1.0" encoding="utf-8"?>
<!-- Generator: Adobe Illustrator 28.2.0, SVG Export Plug-In . SVG Version: 6.00 Build 0)  -->
<svg version="1.1" id="Layer_1" xmlns="http://www.w3.org/2000/svg" xmlns:xlink="http://www.w3.org/1999/xlink" x="0px" y="0px"
	 viewBox="0 0 984.6 990.11" style="enable-background:new 0 0 984.6 990.11;" xml:space="preserve">
<style type="text/css">
	.st0{fill:#7A1B22;stroke:#FFFFFF;stroke-miterlimit:10;}
	.st1{fill:#FFFFFF;}
	.st2{fill:#FBFBFB;}
</style>
<ellipse class="st0" cx="491.99" cy="494.54" rx="425.06" ry="425"/>
<g>
	<path d="M466.18,952.27c-9-0.72-18.01-1.43-27.01-2.15c-9.02-1.31-18.05-2.61-27.07-3.92c-2.18-0.32-4.36-0.64-6.55-0.96
		c-6.57-1.44-13.13-2.88-19.7-4.32c-9-2.49-17.99-4.97-26.99-7.46c-8.74-2.85-17.48-5.71-26.22-8.56c-5.6-2.2-11.19-4.41-16.79-6.61
		c-3.03-2-6.35-3.34-9.82-4.37c-8.76-4.24-17.52-8.48-26.28-12.72c-5.92-3.21-11.44-7.19-17.96-9.24c-2.6-2.78-5.81-4.54-9.42-5.62
		c-0.33-0.5-0.54-1.18-1-1.48c-8.67-5.74-17.36-11.43-26.05-17.13c-0.86-0.64-1.73-1.28-2.59-1.91
		c-8.19-6.47-16.38-12.94-24.57-19.41c-3.39-2.92-6.78-5.84-10.18-8.77c-4.9-5.24-10.16-10.08-15.64-14.7
		c-4.08-4.22-8.17-8.44-12.25-12.66c-4.96-5.42-9.91-10.85-14.87-16.27c-2.24-3.39-4.91-6.42-7.84-9.24
		c-6.71-8.81-13.42-17.63-20.14-26.44c0,0-0.03-0.04-0.03-0.04c-8.58-13.64-17.16-27.28-25.74-40.92
		c-2.09-4.01-4.18-8.01-6.28-12.02c-4.33-9.01-8.65-18.01-12.98-27.02c-2.63-6.41-4.44-13.2-8.48-18.98
		c0.64-3.06-1.13-5.42-2.32-7.95c-2.95-9.11-5.89-18.22-8.84-27.33c-2.3-9.03-4.61-18.05-6.91-27.08
		c-1.77-9.02-3.53-18.04-5.3-27.06c-0.22-6.02-1.34-11.92-2.57-17.79c-0.34-2.8-0.68-5.61-1.02-8.41
		c-1.26-17.71-2.05-35.45-2.29-53.21c0.33-9,0.67-18,1-27c1.85-17.81,3.91-35.59,6.61-53.29c2.04-9.32,4.08-18.65,6.12-27.97
		c2.53-8.92,5.05-17.85,7.58-26.77c3.12-8.81,6.23-17.62,9.35-26.42c3.75-8.92,7.49-17.84,11.24-26.75
		c4.69-9.13,9.38-18.26,14.07-27.4c0.28-0.48,0.56-0.95,0.84-1.43c5.01-8.55,10.03-17.1,15.04-25.65
		c3.85-5.62,7.7-11.23,11.55-16.85c1.77-2.32,3.95-4.37,4.77-7.31c8.11-8.52,14.72-18.26,22.2-27.29c0.23-0.26,0.46-0.52,0.69-0.78
		c7.86-8.46,15.73-16.93,23.59-25.39c0.96-0.91,1.93-1.81,2.89-2.72c8.78-8.05,17.57-16.1,26.35-24.15c0.32-0.27,0.64-0.53,0.96-0.8
		c8.99-6.92,17.99-13.83,26.98-20.75c2.75-1.72,5.59-3.32,7.9-5.66c6.3-3.47,12.36-7.31,18.16-11.57c1.33-0.74,2.68-1.45,4-2.22
		c7.57-4.41,15.13-8.84,22.69-13.26l0.06,0.31c9.14-4.45,18.28-8.89,27.42-13.34c17.68-7.17,35.57-13.75,53.66-19.8
		c9.19-2.44,18.39-4.88,27.58-7.32c8.7-1.73,17.4-3.45,26.11-5.18c20.11-3.24,40.37-5.03,60.68-6.18c14.9-0.84,29.8,0.15,44.7,0.2
		c8.78,0.82,17.56,1.65,26.35,2.47c9.33,1.32,18.66,2.65,27.99,3.97c8.68,1.9,17.36,3.81,26.04,5.71c9.05,2.4,18.1,4.81,27.15,7.21
		c5.11,1.79,10.2,3.64,15.33,5.35c13.09,4.34,25.7,9.94,38.57,14.85c9.08,4.43,18.17,8.87,27.25,13.3
		c8.76,5.06,17.51,10.12,26.27,15.18c5.89,3.82,11.79,7.64,17.68,11.47c2.16,2.28,4.72,3.99,7.53,5.35
		c4.79,3.71,9.53,7.48,14.37,11.13c14.44,10.87,27.5,23.32,40.68,35.63c16.86,17.19,32.58,35.36,47.22,54.47
		c1.65,2.98,3.54,5.79,5.92,8.24c3.72,5.57,7.43,11.14,11.15,16.71c5.23,8.78,10.46,17.55,15.69,26.33l0.06,0.07
		c4.42,8.88,8.85,17.76,13.27,26.64c7.6,17.5,14.48,35.28,20.8,53.28c2.56,9.07,5.12,18.13,7.68,27.2
		c2.08,9.31,4.16,18.62,6.23,27.93c1.31,8.73,2.62,17.46,3.92,26.19c0.5,4.68,1.01,9.35,1.51,14.03c0.1,4.35,0.07,8.7,1.02,12.98
		c0.36,9.03,0.72,18.06,1.08,27.1c-0.21,8.74-0.43,17.48-0.64,26.22c-1.23,27.4-5.56,54.38-11.18,81.18
		c-2.24,8.74-4.48,17.48-6.72,26.22c-3,9.05-6,18.11-8.99,27.16c-1.14,2.29-2.55,4.48-2.68,7.15c-2.62,6.57-5.25,13.14-7.87,19.71
		c-3.96,8.53-7.93,17.05-11.89,25.58c-2.44,3.13-4.15,6.66-5.67,10.3c-3.76,5.53-6.96,11.38-10.06,17.29
		c-5.9,9.07-11.79,18.13-17.69,27.2c-6.77,8.73-13.55,17.46-20.32,26.19c-1.86,1.61-3.4,3.5-4.69,5.59
		c-5.98,6.65-11.96,13.29-17.95,19.94c-3.75,3.32-7.24,6.89-10.37,10.8c-6.25,5.08-11.89,10.81-17.56,16.5
		c-3.19,2.07-5.89,4.72-8.58,7.37c-8.74,6.94-17.48,13.88-26.21,20.82c-0.3,0.22-0.59,0.43-0.89,0.65
		c-8.98,6.04-17.96,12.08-26.94,18.12c-4.11,2.49-8.23,4.98-12.34,7.47c-4.46,1.99-8.75,4.27-12.78,7.04
		c-9.31,4.59-18.61,9.17-27.92,13.76c-4.57,1.8-9.42,3.01-13.28,6.31c-5.15,0.54-9.54,3.14-14.15,5.17
		c-8.84,2.17-17.24,5.67-25.88,8.44c-9.06,2.59-18.11,5.17-27.17,7.76c-7.44,1.61-14.87,3.23-22.31,4.84
		c-1.41-0.23-2.58,0.33-3.7,1.08c-9.16,0.2-18.09,2.13-27.09,3.53c-9.02,0.74-18.04,1.49-27.06,2.23
		C501.74,953.11,483.96,953.02,466.18,952.27z M900.15,678.64c4.36-8.88,8-18.04,11.26-27.37c3.91-8.67,6.8-17.69,9.21-26.87
		c1.35-3.05,2-6.3,2.62-9.55c2.22-5.43,3.47-11.11,4.41-16.87c4.62-17.79,7.6-35.85,9.22-54.15c0.06-0.93,0.11-1.85,0.17-2.78
		c0.16-0.95,0.32-1.9,0.47-2.85c2.02-15.81,2.88-31.68,2.27-47.62c0.45-9.05-0.38-18.05-1.09-27.05c-0.24-3.39-0.38-6.79-0.75-10.16
		c-1.61-14.72-2.82-29.5-6.32-43.95c-1.17-9.23-3.46-18.21-5.99-27.14c-0.58-2.91-1.02-5.85-2.51-8.49
		c-1.51-6.35-2.84-12.75-5.58-18.74c-2.2-9.24-5.91-17.93-9.71-26.58c-4.44-12.72-10.36-24.77-16.44-36.75
		c-2.92-5.76-5.34-11.83-9.52-16.88c-3.25-7.32-7.18-14.24-12.18-20.53c-0.71-2.22-2.08-4-3.7-5.62c-0.04-0.3,0.02-0.67-0.13-0.9
		c-12.23-18.58-25.71-36.18-40.95-52.4c-3.45-3.68-6.89-7.36-10.34-11.04c-4.79-5.82-10.33-10.89-15.85-15.98
		c-3.72-3.3-7.44-6.61-11.16-9.91c-16.17-14.88-33.69-27.96-52.4-39.45c-1.92-1.72-4.08-3.02-6.49-3.93
		c-6.36-4.86-13.23-8.84-20.59-11.96c-8.22-5.25-16.87-9.65-25.88-13.36c-0.55-0.65-1.24-0.92-2.08-0.79
		c-8.4-4.49-17.15-8.19-26.19-11.19c-6.39-3.27-13.28-5.2-20.03-7.5c-12.28-4.18-24.74-7.77-37.4-10.6
		c-7.85-1.76-15.56-4.37-23.73-4.45c-8.49-2.96-17.45-3.08-26.21-4.39c-9.25-1.22-18.51-2.19-27.85-2.36
		c-8.8-0.96-17.62-1.04-26.45-0.81c-8.96-0.15-17.91-0.27-26.83,0.82c-8.21-0.01-16.34,0.92-24.43,2.27
		c-11.06,0.23-21.85,2.58-32.66,4.54c-16.16,2.92-32.17,6.57-47.72,11.99c-9.29,2.44-18.4,5.38-27.15,9.37
		c-9.05,2.88-17.81,6.45-26.15,11.01c-0.79,0.34-1.59,0.68-2.38,1.02c-8.55,3.41-16.97,7.08-24.63,12.26
		c-8.67,3.75-16.59,8.83-24.54,13.86c-1.8,0.58-3.35,1.54-4.65,2.92c-8.98,5.49-17.76,11.26-25.87,17.99
		c-3.18,1.72-5.92,4.02-8.58,6.42c-6.52,4.61-12.6,9.75-18.49,15.12c-4.35,3.39-8.39,7.1-12.12,11.16
		c-5.45,4.48-10.34,9.55-15.1,14.73c-4.43,4.05-8.4,8.53-12.22,13.14c-5.39,5.52-10.42,11.34-14.88,17.64
		c-9.48,10.79-17.85,22.38-25.4,34.58c-0.68,1.09-1.37,2.19-2.05,3.28c-5.31,7.21-9.85,14.87-13.74,22.93
		c-10.55,17.1-18.87,35.28-25.98,54.04c-4.12,8.41-7.33,17.15-9.56,26.24c-2.37,5.09-3.76,10.49-4.99,15.93
		c-1.48,3.65-2.53,7.42-3.16,11.3c-2.59,8.98-4.59,18.09-6.19,27.3c-1.93,8.87-3.55,17.78-4.09,26.86
		c-1.55,8.97-2.68,17.99-2.83,27.11c-0.01,0.6-0.02,1.2-0.03,1.79c-0.18,2.17-0.35,4.34-0.53,6.51c-0.7,6.2-0.8,12.43-0.57,18.66
		c-0.52,9.05-0.05,18.09,0.44,27.13c0.66,17.85,2.56,35.56,5.93,53.11c1.28,9.28,3.02,18.46,5.59,27.48
		c0.91,7.38,3.11,14.41,5.64,21.36c0.31,2.14,0.64,4.27,1.89,6.11c1.91,8.82,4.8,17.32,8.38,25.59c3.27,9.27,6.67,18.49,11.4,27.14
		c0.95,3.34,2.26,6.51,4.26,9.37c2.52,6.11,5.44,12.03,8.8,17.73c4.74,9.4,9.89,18.56,15.84,27.26c5.39,9.02,11.3,17.68,17.67,26.03
		c3.47,5.74,7.73,10.86,12.3,15.74c2.55,4.22,5.69,7.95,9.31,11.3c5.35,6.98,11.12,13.59,17.56,19.59c2.22,2.93,4.83,5.48,7.79,7.67
		c6.19,7.17,13.34,13.33,20.58,19.39c2.51,2.15,5.02,4.29,7.54,6.44c6.07,5.82,12.76,10.85,19.69,15.59
		c5.47,4.28,11.01,8.47,17.04,11.95c2.95,2.61,6.3,4.6,9.78,6.4c9.02,6.16,18.26,11.94,28.19,16.56c1.74,1.46,3.53,2.79,5.95,2.82
		c5.84,4.32,12.6,6.82,19.21,9.62c8.42,4.36,17.07,8.19,26.14,11.02c17.62,7.27,35.78,12.82,54.37,16.99
		c8.49,2.53,17.14,4.33,25.92,5.48c9.27,2.11,18.63,3.62,28.12,4.31c1.25,0.06,2.49,0.12,3.74,0.17c0.93,0.12,1.87,0.24,2.8,0.37
		c6.49,1.06,13.02,1.55,19.59,1.59c8.71,1.14,17.45,0.96,26.2,0.78c9.03,0.15,18.07,0.26,27.06-0.84
		c9.73-0.22,19.42-0.94,28.98-2.89c7.58-0.15,14.97-1.59,22.34-3.22c17.53-2.78,34.67-7.23,51.65-12.34
		c1.73-0.52,3.75-0.53,4.87-2.35l0.06,0c9.44-1.42,18.14-4.98,26.61-9.2c9.4-2.03,17.73-6.64,26.2-10.91
		c6.16-2.17,11.96-5.08,17.55-8.44c3.49-1.18,6.59-3.09,9.6-5.17c9.09-4.52,17.83-9.62,26.12-15.47c2.78-1.36,5.42-2.93,7.62-5.16
		c6.72-4.21,13.27-8.66,19.37-13.75c5.68-3.82,11.18-7.86,15.97-12.78c4.13-2.67,7.85-5.83,11.22-9.41
		c6.8-5.23,13.13-10.96,18.73-17.48c3.7-2.71,6.77-6.04,9.57-9.64c5.78-5.44,11.11-11.28,15.86-17.64
		c3.72-3.74,6.97-7.88,10.04-12.16c11.15-13.34,21.19-27.49,30.32-42.27c5.22-8.44,10.69-16.77,14.74-25.89
		c3.81-5.92,6.68-12.31,9.38-18.78C898.16,684.36,899.16,681.5,900.15,678.64z"/>
	<path d="M492.82,958.35c-8.61,0-17.53-0.2-26.88-0.59l-0.2-0.01l-27.36-2.19l-34.01-4.95l-19.98-4.39l-27.23-7.53l-26.52-8.68
		l-17.33-6.82l-0.48-0.32c-2.27-1.5-4.92-2.67-8.35-3.69l-0.43-0.13l-26.9-13.03c-1.79-0.97-3.52-1.99-5.2-2.98
		c-3.98-2.35-7.74-4.57-11.79-5.85l-1.38-0.43l-0.99-1.06c-1.76-1.89-4.04-3.23-6.97-4.1l-1.94-0.58l-1.1-1.69
		c-0.1-0.15-0.19-0.3-0.28-0.46c-7-4.63-14.02-9.23-21.04-13.84l-4.38-2.88l-2.74-2.02l-24.76-19.56l-10.6-9.18
		c-4.35-4.65-9.31-9.31-15.17-14.25l-0.41-0.38l-12.36-12.78l-15.16-16.59l-0.24-0.36c-1.85-2.8-4.16-5.52-7.06-8.3l-0.31-0.29
		l-20.71-27.22L86.6,719.92l-6.36-12.18l-13.11-27.31c-0.75-1.83-1.43-3.66-2.09-5.44c-1.68-4.55-3.27-8.84-5.82-12.48l-1.36-1.95
		l0.49-2.33c0.1-0.5-0.33-1.39-1.07-2.8c-0.29-0.56-0.58-1.12-0.85-1.69l-0.25-0.64l-8.93-27.66l-6.98-27.38l-5.38-27.48l-0.02-0.43
		c-0.22-5.78-1.33-11.51-2.45-16.87l-0.08-0.47l-1.04-8.68c-1.29-18.15-2.07-36.15-2.3-53.52l0-0.14l0.01-0.14l1.02-27.36
		c2.26-21.7,4.31-38.22,6.64-53.55l0.06-0.35l6.21-28.29l7.69-27.11l9.46-26.72l11.42-27.14l14.22-27.67l16.08-27.41l11.72-17.08
		c0.45-0.59,0.92-1.16,1.4-1.73c1.14-1.38,2.13-2.57,2.44-3.71l0.37-1.32l0.95-0.99c4.93-5.19,9.25-10.79,13.82-16.72
		c2.62-3.39,5.32-6.9,8.13-10.29l0.9-1.02l23.85-25.65l2.89-2.72l27.73-25.3l27.42-21.06l1.2-0.74c2.16-1.33,4.19-2.59,5.72-4.13
		l0.56-0.56l0.69-0.38c6.19-3.41,12.1-7.17,17.56-11.19l0.59-0.38l1.32-0.72c0.86-0.47,1.73-0.94,2.58-1.43
		c5.6-3.26,11.19-6.54,16.78-9.81l12.58-7.36l0.18,0.9l21.34-10.37c17.37-7.05,35.53-13.75,53.98-19.92l0.33-0.1l27.92-7.4
		l26.3-5.21c18.2-2.93,37.66-4.91,61.25-6.24c10.08-0.57,20.21-0.32,30.01-0.07c4.93,0.12,10.04,0.25,15.02,0.27l0.49,0.02l26.6,2.5
		l28.4,4.04l26.27,5.77l27.55,7.34c1.61,0.56,3.22,1.14,4.83,1.71c3.41,1.21,6.94,2.46,10.41,3.61c8.61,2.85,17.07,6.26,25.25,9.56
		c4.44,1.79,9.03,3.64,13.55,5.36l0.45,0.2l27.59,13.48l26.51,15.33l18.23,11.82l0.45,0.48c1.53,1.61,3.47,2.98,5.93,4.18l0.52,0.25
		l0.45,0.35c1.5,1.17,3,2.34,4.5,3.51c3.2,2.5,6.52,5.09,9.8,7.57c13.43,10.11,25.77,21.65,37.71,32.81l3.59,3.36
		c16.79,17.12,32.83,35.61,47.66,54.97l0.25,0.32l0.2,0.36c1.64,2.95,3.24,5.2,5.06,7.08l0.35,0.36l11.58,17.37l15.94,26.76
		l13.39,26.9c7.32,16.84,14.36,34.89,20.94,53.65l0.1,0.33l7.76,27.49l6.3,28.31l3.95,26.41l1.54,14.49l0.03,1.6
		c0.07,3.65,0.14,7.09,0.86,10.32l0.11,0.48l1.11,27.76l-0.65,26.51c-1.09,24.43-4.68,50.51-11.29,82.06l-0.06,0.24l-6.83,26.58
		l-9.11,27.52l-0.17,0.35c-0.22,0.44-0.44,0.87-0.67,1.31c-0.75,1.43-1.39,2.67-1.44,3.67l-0.04,0.92L917,680.51l-1.79,3.86
		c-3.37,7.24-6.73,14.48-10.09,21.72l-0.27,0.57l-0.39,0.5c-2.17,2.78-3.71,6.13-4.93,9.04l-0.21,0.51l-0.31,0.46
		c-3.64,5.36-6.83,11.22-9.74,16.75l-0.26,0.44l-17.95,27.58l-20.66,26.62l-0.41,0.36c-1.37,1.19-2.55,2.6-3.61,4.32l-0.26,0.43
		l-18.72,20.75c-3.75,3.32-6.93,6.63-9.72,10.12l-0.37,0.46l-0.46,0.37c-5.62,4.57-10.68,9.64-16.04,15.02l-1.51,1.51l-0.49,0.32
		c-2.77,1.8-5.29,4.28-7.72,6.68l-0.44,0.39l-27.45,21.72l-27.16,18.26l-12.95,7.79c-4.56,2.03-8.45,4.17-11.91,6.55l-0.33,0.22
		l-28.68,14.12c-1.07,0.42-2.15,0.81-3.24,1.2c-3.22,1.16-6.25,2.26-8.49,4.17l-1.3,1.12l-1.71,0.18c-3.09,0.32-6.14,1.76-9.37,3.29
		c-1.04,0.49-2.08,0.98-3.13,1.45l-0.44,0.19l-0.47,0.12c-5.43,1.33-10.66,3.18-16.19,5.14c-3.03,1.07-6.17,2.18-9.32,3.19
		l-0.17,0.05l-27.51,7.85l-23.34,5.06l-0.56-0.09c-0.06,0.04-0.14,0.09-0.24,0.15l-1.33,0.88l-1.59,0.04
		c-6.6,0.15-13.08,1.24-19.94,2.41c-2.14,0.36-4.28,0.73-6.43,1.06l-0.39,0.05l-27.22,2.24
		C511.09,958.12,502.14,958.35,492.82,958.35z M440.38,934.16l4.12,0.21l2.97,0.39c5.93,0.97,12.23,1.48,18.75,1.52l0.68,0.05
		c8.36,1.1,17.01,0.91,25.37,0.73l0.1,0l0.1,0c8.16,0.13,17.41,0.28,26.31-0.8l0.54-0.04c10.98-0.24,19.88-1.12,28.01-2.78l0.49-0.1
		l0.5-0.01c7.37-0.14,14.84-1.67,21.26-3.09l0.32-0.06c15.11-2.4,31.29-6.27,50.93-12.17c0.5-0.15,1.02-0.27,1.55-0.39
		c0.18-0.04,0.39-0.09,0.57-0.13l1.24-2l2.69-0.05c9.45-1.48,18.11-5.38,24.62-8.63l0.62-0.31l0.68-0.15
		c7.61-1.64,14.55-5.18,21.91-8.93c0.99-0.51,1.98-1.01,2.98-1.51l0.64-0.27c5.37-1.9,10.78-4.5,16.54-7.97l0.51-0.31l0.57-0.19
		c2.96-1,5.71-2.75,8.23-4.48l0.32-0.22l0.35-0.17c9.31-4.63,17.62-9.55,25.4-15.04l0.36-0.25l0.4-0.19
		c2.8-1.37,4.68-2.62,6.11-4.07l0.45-0.46l0.55-0.34c7.84-4.92,13.63-9.02,18.77-13.31l0.46-0.34c4.8-3.22,10.35-7.18,15.1-12.05
		l0.43-0.45l0.52-0.34c3.65-2.36,7.08-5.24,10.2-8.56l0.3-0.32l0.35-0.27c7.09-5.45,12.94-10.92,17.91-16.7l0.41-0.48l0.51-0.37
		c2.87-2.11,5.57-4.83,8.48-8.58l0.26-0.33l0.31-0.29c5.85-5.51,10.83-11.05,15.22-16.93l0.23-0.31l0.27-0.28
		c3.04-3.06,5.96-6.6,9.48-11.49l0.25-0.32c10.51-12.57,20.56-26.58,29.86-41.63c0.77-1.24,1.54-2.48,2.31-3.71
		c4.52-7.24,8.78-14.08,12.08-21.51l0.17-0.39l0.23-0.36c3.39-5.27,6.02-10.97,8.93-17.93l0.29-0.7l0.47-0.59
		c1.34-1.69,2.16-4.04,3.02-6.52l0.26-0.62c3.86-7.87,7.46-16.62,11-26.76l0.18-0.45c3.39-7.51,6.22-15.78,8.9-26.01l0.11-0.43
		l0.18-0.41c1.14-2.57,1.73-5.64,2.25-8.35l0.1-0.54l0.21-0.51c1.74-4.26,3-9.1,4.08-15.67l0.1-0.49
		c4.38-16.88,7.43-34.77,9.05-53.18l0.23-3.27l0.46-2.75c2.04-15.99,2.79-31.68,2.22-46.61l-0.01-0.24l0.01-0.24
		c0.39-7.91-0.23-15.73-0.89-24l-0.19-2.35c-0.08-1.12-0.15-2.21-0.21-3.3c-0.14-2.32-0.28-4.52-0.52-6.69
		c-0.24-2.22-0.48-4.45-0.71-6.67c-1.28-12.12-2.6-24.66-5.49-36.58l-0.11-0.6c-1.16-9.15-3.49-18.06-5.83-26.33l-0.1-0.42
		l-0.21-1.06c-0.44-2.29-0.82-4.26-1.7-5.81l-0.38-0.67l-0.71-3c-1.29-5.5-2.51-10.69-4.7-15.47l-0.22-0.49l-0.12-0.52
		c-2.04-8.57-5.46-16.68-9.4-25.64l-0.16-0.4c-4.39-12.6-10.39-24.73-16.15-36.07c-0.68-1.34-1.34-2.7-1.99-4.06
		c-2.09-4.33-4.06-8.42-6.86-11.81l-0.48-0.58l-0.31-0.69c-3.34-7.51-7.09-13.84-11.46-19.35l-0.62-0.78l-0.31-0.95
		c-0.35-1.08-1.07-2.13-2.35-3.41l-1.33-1.33l-0.18-1.47c-12.65-19.1-25.64-35.67-39.68-50.63l-10.58-11.31
		c-4.44-5.4-9.55-10.1-14.96-15.08l-0.34-0.31l-11.12-9.88c-15.57-14.33-32.92-27.39-51.62-38.88l-0.42-0.26l-0.37-0.33
		c-1.41-1.26-2.97-2.21-4.76-2.88l-0.75-0.29l-0.64-0.49c-5.95-4.55-12.48-8.34-19.4-11.26l-0.43-0.18l-0.39-0.25
		c-7.64-4.88-16.05-9.22-25.01-12.9l-0.55-0.23l-0.41,0.06l-1.62-0.87c-7.94-4.24-16.46-7.88-25.33-10.82l-0.4-0.13l-0.38-0.19
		c-4.6-2.36-9.54-3.98-14.78-5.69c-1.51-0.49-3.02-0.99-4.52-1.5c-12.43-4.24-24.82-7.75-36.83-10.44
		c-2.04-0.46-4.06-0.97-6.03-1.46c-5.7-1.44-11.08-2.8-16.55-2.85l-0.91-0.01l-0.86-0.3c-5.38-1.88-11.11-2.5-17.17-3.16
		c-2.62-0.29-5.34-0.58-8.04-0.99c-7.39-0.97-17.25-2.13-27.13-2.3l-0.5-0.03c-7.45-0.81-15.38-1.05-25.71-0.78l-0.12,0l-0.12,0
		c-8.13-0.13-17.35-0.29-26.08,0.78l-0.34,0.04l-0.34,0c-6.97,0.01-14.47,0.69-23.51,2.2l-0.39,0.07l-0.4,0.01
		c-8.9,0.19-17.56,1.8-26.74,3.51c-1.69,0.31-3.37,0.63-5.06,0.93c-18.6,3.36-33.5,7.1-46.89,11.77l-0.41,0.13
		c-10.36,2.73-18.71,5.6-26.27,9.06l-0.61,0.24c-9.37,2.99-17.6,6.45-25.18,10.6l-0.49,0.24L307,93.8
		c-9.2,3.67-16.73,7.06-23.59,11.71l-0.42,0.29l-0.47,0.2c-7.99,3.46-15.29,8.08-23.01,12.97l-1.37,0.87l-0.67,0.21
		c-0.94,0.3-1.67,0.76-2.31,1.44l-0.51,0.54l-0.64,0.39c-7.25,4.43-16.66,10.42-25.22,17.53l-0.42,0.35l-0.48,0.26
		c-2.54,1.38-4.84,3.26-7.52,5.67l-0.51,0.4c-5.65,4-11.36,8.67-17.95,14.69l-0.33,0.28c-4.1,3.2-7.96,6.74-11.45,10.54l-0.26,0.28
		l-0.3,0.24c-5.34,4.39-10.15,9.42-14.54,14.21l-0.34,0.34c-4.6,4.21-8.67,8.94-11.7,12.59l-0.29,0.33
		c-5.67,5.81-10.35,11.37-14.32,16.98l-0.36,0.46c-8.91,10.13-17.04,21.2-24.86,33.85l-2.3,3.65c-4.93,6.69-9.38,14.11-13.21,22.06
		l-0.27,0.49c-9.39,15.22-17.74,32.59-25.52,53.1l-0.2,0.47c-3.98,8.12-7.06,16.57-9.16,25.13l-0.13,0.52l-0.23,0.49
		c-2.25,4.84-3.56,10.19-4.62,14.83l-0.1,0.44l-0.17,0.42c-1.3,3.2-2.25,6.6-2.83,10.12l-0.14,0.64
		c-2.39,8.29-4.37,17.02-6.05,26.71l-0.05,0.23c-1.55,7.13-3.41,16.52-3.98,26.02l-0.07,0.61c-1.75,10.09-2.62,18.44-2.75,26.27
		l-0.04,2.15l-0.54,6.68c-0.61,5.41-0.78,11.25-0.54,17.84l0.01,0.26l-0.02,0.26c-0.51,8.9-0.03,17.85,0.44,26.51
		c0.67,18.1,2.63,35.69,5.84,52.37l0.05,0.29c1.38,10,3.16,18.75,5.43,26.72l0.12,0.41l0.05,0.42c0.89,7.25,3.21,14.26,5.35,20.15
		l0.19,0.53l0.08,0.56c0.26,1.8,0.47,3.03,1,3.81l0.6,0.88l0.23,1.05c1.73,8,4.36,16.04,8.05,24.57l0.14,0.35
		c3.22,9.12,6.48,17.99,11.04,26.33l0.3,0.54l0.17,0.59c0.88,3.11,2.02,5.64,3.47,7.73l0.34,0.49l0.23,0.56
		c2.48,5.99,5.32,11.72,8.45,17.03l0.17,0.32c5.18,10.28,10.24,18.99,15.47,26.63l0.18,0.28c5.16,8.63,10.98,17.22,17.32,25.52
		l0.33,0.49c2.84,4.7,6.53,9.41,11.61,14.83l0.4,0.42l0.3,0.49c2.21,3.65,4.93,6.96,8.34,10.1l0.35,0.32l0.29,0.37
		c5.62,7.34,11.17,13.53,16.94,18.91l0.35,0.32l0.29,0.38c1.85,2.45,4.1,4.66,6.68,6.57l0.49,0.36l0.4,0.46
		c5.93,6.87,12.82,12.79,19.95,18.77l7.81,6.68c5.06,4.86,10.92,9.49,18.99,15.02l0.28,0.21c5.05,3.95,10.47,8.1,16.4,11.51
		l0.48,0.28l0.42,0.37c2.77,2.45,6.09,4.3,8.67,5.63l0.57,0.34c7.21,4.92,16.84,11.2,27.41,16.12l0.66,0.31l0.56,0.47
		c1.09,0.91,1.92,1.52,2.46,1.53l1.79,0.02l1.44,1.06c4.46,3.3,9.67,5.47,15.18,7.77c0.97,0.4,1.94,0.81,2.9,1.22l0.38,0.18
		c9.07,4.7,17.33,8.18,25.24,10.65l0.46,0.17c16.6,6.85,34.59,12.47,53.47,16.71l0.36,0.09c8.02,2.39,16.46,4.17,25.06,5.3
		l0.51,0.09C422.69,932.15,431.6,933.52,440.38,934.16z"/>
</g>
<path class="st1" d="M745.97,862.77c-9.17,5.88-18.33,11.76-27.5,17.64c-2.94,1.47-6.11,2.56-8.44,5.06
	c-7.1,2.94-13.74,6.77-20.41,10.56c-9.4,4.31-18.8,8.62-28.19,12.93c-3.33,0.69-6.49,1.81-9.34,3.71
	c-6.04,2.09-12.09,4.18-18.13,6.27c-18.46,5.98-37.25,10.72-56.13,15.15c-9.78,1.59-19.56,3.17-29.34,4.76
	c-5.95,0.27-11.87,0.76-17.71,1.95c-3.29,0.21-6.57,0.42-9.86,0.63c-9.53,0.21-19.06,0.42-28.58,0.63
	c-9.48-0.22-18.96-0.43-28.44-0.65c-7.76-1.12-15.55-1.93-23.41-1.94c-8.92,0-17.57-2.07-26.27-3.62c-1.79-0.32-3.54-0.02-5.26-0.44
	c-9.3-3.3-19.03-4.81-28.62-6.92c-9.53-2.81-19.05-5.62-28.58-8.43c-7.53-1.85-14.22-6.05-21.82-7.7c-1.69-1.24-3.54-2.07-5.65-2.29
	c-9.16-4.08-18.32-8.16-27.48-12.25c-19.59-10.02-38.71-20.86-57.01-33.1c-4.01-3.34-8.28-6.31-12.81-8.91
	c-4.61-4.28-9.67-7.96-14.81-11.56c-6.19-5.27-12.39-10.53-18.58-15.8c-2.91-3.25-5.97-6.34-9.48-8.94
	c-6.43-6.49-12.87-12.97-19.3-19.46c-2.96-3.84-6-7.61-9.71-10.78c-4.93-5.91-9.86-11.82-14.79-17.73
	c-4.47-6.03-8.95-12.06-13.42-18.08c-8.48-13.3-16.95-26.61-25.43-39.91c-0.42-1.96-1.42-3.6-2.71-5.1
	c-3.85-7.47-7.7-14.95-11.55-22.42c-3.83-8.85-7.67-17.7-11.5-26.55c-1.62-5.42-3.64-10.68-5.99-15.82
	c-1.38-4.29-2.77-8.57-4.15-12.86c-2.77-9.52-5.55-19.03-8.32-28.55c-3.69-17.33-6.77-34.76-9.5-52.26l-0.13-0.37
	c0.47-1.11,0.26-2.14-0.33-3.14c-0.79-9.52-1.59-19.04-2.38-28.57c-0.19-9.54-0.37-19.07-0.56-28.61c0.18-4.91,0.36-9.81,0.54-14.72
	c0.69-1.6,0.67-3.25,0.28-4.91c0.14-2.58,0.27-5.16,0.41-7.74c1.05-9.55,2.09-19.11,3.14-28.66c1.62-9.46,3.23-18.91,4.85-28.37
	c2.26-9.41,4.52-18.83,6.79-28.24c2.93-9.55,6.91-18.79,8.41-28.75c4.94-9.11,8.17-18.94,11.83-28.58
	c4.29-9.14,8.58-18.27,12.87-27.41c2.15-3.05,3.81-6.36,5.12-9.86c3.61-5.41,6.94-10.98,9.74-16.86
	c6.19-9.38,12.38-18.76,18.58-28.14c7.15-9.27,14.3-18.54,21.45-27.81c2.27-2.64,4.53-5.29,6.8-7.93
	c6.32-6.82,12.63-13.64,18.95-20.46c3.7-2.92,6.96-6.3,10.11-9.79c7.08-6.26,14.16-12.53,21.24-18.79c3.07-1.64,5.14-4.46,7.79-6.58
	c14.62-10.48,28.87-21.48,44.31-30.78c3.63-2.19,7.14-4.57,10.71-6.86c7.21-3.72,14.52-7.24,21.27-11.79
	c3.15-0.57,5.83-2.21,8.53-3.78c9.02-4.46,18.68-7.57,27.32-12.82c7.81-1.29,14.83-4.99,22.27-7.43c10.37-3.41,20.8-6.59,31.36-9.32
	c1.1-0.28,2.16-0.72,3.24-1.08c18.53-4.15,37.17-7.72,55.99-10.27c8.57-0.77,17.13-1.53,25.7-2.3c9.45-0.26,18.91-0.53,28.36-0.79
	c9.56,0.31,19.13,0.61,28.69,0.92c9.14,0.84,18.29,1.68,27.43,2.52c9.74,1.52,19.47,3.03,29.21,4.55
	c9.59,2.14,19.18,4.29,28.77,6.43c8.99,3.12,18.12,5.8,27.36,8.06c9.56,3.52,19.12,7.04,28.69,10.56
	c9.48,4.29,18.96,8.58,28.43,12.87c1.74,1.47,3.81,2.31,5.94,2.99c7.54,4.2,15.09,8.41,22.63,12.61
	c18.98,12.11,37.7,24.61,55.23,38.79c1.29,1.44,2.69,2.74,4.51,3.48c7.62,6.87,15.24,13.73,22.86,20.6
	c2.96,2.94,5.91,5.89,8.87,8.83c6.86,7.31,13.72,14.61,20.59,21.92c1.22,2.27,2.91,4.15,4.79,5.89
	c13.94,17.14,26.61,35.19,38.41,53.85c4.14,7.23,8.28,14.45,12.42,21.68c1.25,2.41,2.5,4.81,3.75,7.22
	c4.22,9.04,8.43,18.09,12.65,27.13c7.58,18.74,14.05,37.87,20.06,57.16c2.24,9.46,4.48,18.93,6.73,28.39
	c3.29,18.85,6.14,37.76,7.83,56.83c0.45,9.54,0.91,19.09,1.36,28.63c-0.45,21.57-1.39,43.11-4.39,64.51
	c-0.93,6.63-1.87,13.26-2.8,19.89c-2.03,9.24-4.05,18.47-6.08,27.71c-2.73,9.44-5.45,18.88-8.18,28.32
	c-0.96,2.99-1.93,5.98-2.89,8.97c-2.4,6.58-4.79,13.17-7.19,19.75c-4.09,9.26-8.17,18.52-12.26,27.77
	c-3.23,6.4-6.46,12.81-9.69,19.21c-2.05,3.15-4.15,6.27-5.51,9.81c-5.55,8.81-11.1,17.63-16.65,26.44
	c-6.9,9.54-13.8,19.08-20.7,28.62c-4.31,5.25-8.62,10.5-12.92,15.75c-4.27,3.9-8.06,8.24-11.63,12.78
	c-5.52,5.61-11.03,11.21-16.55,16.82c-4.27,3.93-8.53,7.85-12.8,11.78c-4.94,4.22-9.88,8.44-14.81,12.66
	c-6.22,4.89-12.44,9.78-18.66,14.67C752.24,857.73,748.95,860.02,745.97,862.77z M893.54,632.1c1.27,0.5,1.03-0.54,1.2-1.16
	c3.9-9.19,6.41-18.82,8.73-28.5c2.74-9.02,5.04-18.14,6.34-27.49c2.22-9.41,3.65-18.94,4.35-28.59c1.86-10.38,2.41-20.86,2.65-31.38
	c0.77-3.94,0.72-7.9,0.31-11.87c0.02-3.95,0.05-7.9,0.07-11.85c-0.03-0.64-0.07-1.28-0.1-1.92c0.24-5.55,0.32-11.09-0.34-16.62
	c0.47-2.05,0.22-4.06-0.42-6.04c-0.11-1.61-0.21-3.22-0.32-4.82c-0.5-9.5-1.18-18.98-3.14-28.32c-1.16-9.75-2.69-19.42-5.26-28.91
	c-1.22-9.71-3.97-19.04-7.05-28.28c-5.43-19.25-11.96-38.09-20.73-56.1c-3.85-10.41-9.08-20.13-14.64-29.7
	c-1.48-3.07-2.83-6.21-5.05-8.85c-2.97-6.8-7.3-12.76-11.51-18.8c-5.01-8.43-10.59-16.46-16.93-23.94c-0.41-1.4-1.32-2.43-2.45-3.3
	c-7.96-10.78-16.51-21.05-26.02-30.51c-8.43-9.75-17.84-18.51-27.4-27.09c-8.71-7.82-17.45-15.63-27.29-22.06
	c-1.47-1.68-3.24-2.98-5.26-3.92c-7.03-5.44-14.18-10.7-22.01-14.95c-18.46-12.6-38.18-22.85-58.73-31.58
	c-18.27-8.41-37.18-15-56.7-19.82c-9.44-3.03-19.04-5.39-28.84-6.89c-3.33-0.74-6.62-1.68-9.98-2.2c-15.3-2.34-30.56-5-46.11-5.05
	c-9.47-1.48-19-1.41-28.54-1.1c-9.5-0.36-18.98-0.41-28.42,0.93c-8.58,0.13-17.08,1.06-25.55,2.39c-9.64,0.81-19.18,2.24-28.57,4.61
	c-9.72,1.49-19.3,3.56-28.6,6.79c-19.36,4.38-37.96,11.01-56.09,19.04c-9.77,3.87-19.45,7.91-28.4,13.5
	c-3.26,1.08-6.25,2.63-8.84,4.91c-6.68,2.8-12.82,6.57-18.78,10.65c-9.76,5.45-18.96,11.73-27.68,18.72c-0.81,0.5-1.61,1-2.42,1.51
	c-13.84,9.98-26.96,20.84-39.26,32.64c-16.09,15.42-31.48,31.49-44.67,49.54c-1.01,0.74-2.02,1.49-2.04,2.93
	c-6.67,7.62-12.36,15.94-17.56,24.62c-4.13,5.58-7.82,11.42-10.78,17.71c-2.78,3.13-4.5,6.88-6.21,10.64
	c-5.34,9.24-10.31,18.67-14.25,28.61c-3.09,5.27-5.04,11.02-7.21,16.68c-1.83,3.79-3.32,7.71-4.33,11.8
	c-3.96,8.92-6.87,18.19-9.32,27.61c-3.05,9.67-5.7,19.44-7.4,29.45c-2.43,8.99-4.1,18.1-4.68,27.41
	c-3.46,18.92-5.33,37.97-4.72,57.23c-0.66,18.74-0.12,37.42,2.99,55.96c-0.72,4.99,1.17,9.67,1.86,14.48
	c2.02,14.08,4.6,28.05,8.82,41.67c2.06,9.75,4.84,19.28,8.64,28.5c1.72,7.1,4.51,13.82,7.35,20.51c0.56,2.88,1.87,5.46,3.32,7.97
	c4.55,13.46,4.55,13.47,18.25,13.44c2.59-0.01,5.18-0.12,7.78-0.19c9.56,0.39,19.12,0.4,28.68-0.01c9.45,0.02,18.9,0.04,28.35,0.06
	c9.89-0.01,19.77-0.02,29.66-0.03c9.12-0.01,18.24-0.01,27.36-0.02c9.57,0.38,19.13,0.42,28.7,0.01
	c18.94,0.01,37.89,0.02,56.83,0.03c9.24,0,18.48-0.01,27.72-0.01c9.76-0.02,19.53-0.05,29.29-0.07c18.75,0.4,37.49,0.65,56.24,0.09
	c8.46,0.02,16.93,0.03,25.39,0.05c9.56-0.02,19.11-0.04,28.67-0.06c9.45-0.01,18.89-0.02,28.34-0.03
	c9.56,0.02,19.12,0.05,28.68,0.07c9.13,0,18.25-0.01,27.38-0.01c9.56-0.02,19.12-0.04,28.67-0.06c18.95,0,37.9,0,56.85,0
	c9.56,0.01,19.12,0.02,28.68,0.03c9.45-0.01,18.9-0.01,28.35-0.02c9.56,0.01,19.11,0.02,28.67,0.02c8.79-0.01,17.59-0.03,26.38-0.04
	c9.56,0.01,19.13,0.02,28.69,0.03c9.44-0.01,18.88-0.02,28.32-0.03c9.56,0,19.13-0.01,28.69-0.01c18.34,1.36,18.82,1.11,23.62-12.31
	c0.11-0.3,0.09-0.63,0.13-0.95c2.4-4.39,4.23-9.02,5.7-13.79c1.97-4.21,3.51-8.59,4.74-13.07
	C894.31,632.07,894.05,631.89,893.54,632.1z M325.25,684.01c-9.18-0.02-18.36-0.05-27.54-0.07c-9.83,0.02-19.65,0.04-29.48,0.06
	c-9.5,0-19,0-28.5,0c-9.5-0.03-19-0.05-28.5-0.08c-9.51,0.02-19.02,0.04-28.53,0.05c-9.5,0-19,0-28.51,0
	c-9.5,0.01-19,0.02-28.51,0.04c-3.68-0.05-7.36-0.17-11.04-0.12c-1.17,0.01-2.88-0.73-3.41,0.79c-0.41,1.19,0.62,2.37,1.6,3.25
	c3.38,7.52,7.38,14.71,11.77,21.68c1.26,2.89,2.86,5.57,4.88,8c5.28,9.22,11.18,18.03,17.71,26.42c2.29,3,4.58,6,6.87,8.99
	c4.55,7.11,10.08,13.42,15.98,19.41c3.05,4.94,7.01,9.09,11.33,12.92c4.88,5.83,10.14,11.28,15.91,16.23
	c3.67,4.28,7.76,8.1,12.31,11.42c6.27,6.19,12.88,11.96,20.18,16.92c2.88,3.05,6.28,5.43,9.86,7.57
	c8.71,6.85,17.78,13.17,27.38,18.72c0.74,1.11,1.63,1.98,3.11,1.9c8.59,5.4,17.23,10.71,26.61,14.69
	c8.68,5.31,17.94,9.4,27.45,12.94c0.3,0.13,0.59,0.27,0.89,0.4c8.6,4.2,17.47,7.7,26.67,10.33c9.3,3.71,18.88,6.51,28.61,8.81
	c9.28,3.14,18.85,5.08,28.49,6.68c4.49,1.16,9,2.13,13.65,2.3c4.45,1.37,9.01,1.9,13.65,2c9.17,1.78,18.44,2.48,27.76,2.75
	c9.47,1.1,18.96,1.28,28.48,0.91c9.53,0.25,19.06,0.46,28.54-0.92c9.57-0.25,19.09-0.98,28.47-2.98c4.69-0.02,9.25-0.88,13.78-2.01
	c4.57,0.36,8.57-1.77,12.78-2.95c10.22-0.67,19.9-3.71,29.59-6.69c9.74-2.13,19.2-5.16,28.4-9c7.81-2.29,15.34-5.29,22.66-8.83
	c2.23-0.23,4.16-1.19,5.94-2.49c9.84-4.03,19.44-8.56,28.6-13.98c8-3.56,15.61-7.82,22.76-12.89c1.84-1.13,3.68-2.26,5.52-3.39
	c9.61-5.84,19.07-11.9,27.62-19.26c2.63-1.23,4.69-3.22,6.85-5.08c7.23-5.41,14.36-10.93,20.7-17.4c4.62-3.69,9.14-7.49,12.96-12.04
	c5.63-4.82,10.84-10.05,15.5-15.82c3.85-3.57,7.23-7.57,10.49-11.67c6.86-7.01,12.86-14.76,18.7-22.59
	c7.99-10.71,15.92-21.5,22.13-33.41c2.77-3.31,4.94-6.98,6.67-10.92c3.92-5.36,6.9-11.23,9.48-17.32c2.31-2.92,2.77-4.88-2.12-4.5
	c-2.76,0.21-5.55,0.13-8.33,0.18c-9.5,0.01-19.01,0.03-28.51,0.05c-9.5-0.01-19-0.02-28.5-0.02c-9.5-0.01-19-0.03-28.5-0.04
	c-9.18,0.03-18.35,0.05-27.53,0.08c-9.18-0.01-18.36-0.02-27.54-0.03c-9.5,0-19.01-0.01-28.51-0.01c-9.5,0-19.01,0-28.51,0.01
	c-18.68-0.02-37.37-0.03-56.05-0.05c-9.83,0.01-19.65,0.01-29.48,0.02c-9.18,0-18.36,0-27.54-0.01c-9.51,0.03-19.01,0.06-28.52,0.09
	c-9.49-0.01-18.99-0.03-28.48-0.04c-9.5-0.03-19-0.06-28.5-0.09c-8.53,0.02-17.05,0.05-25.58,0.07c-9.51-0.37-19.02-0.4-28.53,0.03
	c-0.32-0.11-0.63-0.09-0.94,0.04c-9.18-0.04-18.37-0.08-27.55-0.11c-9.51,0.01-19.02,0.02-28.53,0.03
	C343.6,683.99,334.42,684,325.25,684.01z"/>
<path class="st2" d="M802.98,309.05c6-0.35,8.91,3.68,11.6,8.1c0.92,1.51,2.04,2.9,3.07,4.34c1.83,2.68,3.69,5.35,5.49,8.05
	c1.2,1.79,2.54,3.87,0.81,5.78c-1.69,1.87-4,0.83-5.86-0.11c-4.65-2.32-9.22-4.82-13.82-7.25c-3.51-1.63-4.67-7.44-10.1-5.65
	c-1.95-0.01-3.89-0.02-5.84-0.03c-1-0.01-1.99-0.01-2.99-0.02c-3.05-0.09-6.11-0.17-9.16-0.26c-0.45-0.09-0.9-0.19-1.35-0.28
	c-9.25-0.82-18.5-0.44-27.75-0.21c-9.62-0.81-19.09-0.8-27.61,4.75c-10.13,3.82-20.55,6.97-29.98,12.49
	c-5.6,1.61-10.87,3.88-15.3,7.79c-4.32,1.71-8.15,4.21-11.75,7.11c-1.56,0.85-3.09,1.75-4.68,2.53c-8.35,4.08-14.1,4.32-19.96-3.59
	c-1.33-1.79-3.14-3.22-4.74-4.81c-0.91-1.91-1.77-4.04-4.23-4.17c-7.41-0.4-13.17-4.96-19.71-7.55c-1.19-0.47-2.44-0.78-3.66-1.16
	c-3.87-1.51-7.02-4.79-11.51-4.79c-5.68,0-11.36,0.05-17.04,0.08c-9.17-0.05-18.35-0.09-27.52-0.14
	c-9.58,0.49-19.04-1.43-28.59-1.51c-9.62,1.12-18.76-3.7-28.41-2.32c-10.06-0.43-18.76,5.41-28.57,6.14
	c-9.2,3.24-17.11,8.71-24.84,14.43c-9.45,6.99-19.68,12.75-29.49,19.18c-8.39,3.78-17.06,5.34-26.2,3.39
	c-9.55-6.54-14.37-5-21.38,6.84c-2.98,3.08-5.81,6.29-8.17,9.88c-8.28,6.95-17.97,10.43-28.59,11.63c-1.94-0.12-3.89-0.19-5.83-0.36
	c-4.82-0.43-9.92,0.3-14.27-2.45c-10.26-6.51-22.07-10.45-31.24-18.78c-1.81-1.85-3.63-3.69-5.44-5.54
	c-3.33-9.48-10.41-14.54-19.86-16.8c-0.62-0.27-1.24-0.54-1.85-0.81c-1.51-1.05-3.05-2.05-4.94-2.29c-2.21-1.92-4.43-3.83-6.64-5.75
	c-2.84-2.41-5.97-4.55-8.45-7.28c-3.76-4.14-8.36-6.66-13.46-8.53c-2.01-1.89-4.6-2.59-7.16-2.72c-7.78-0.39-15.56-1.06-23.36-0.32
	c-2.06-0.27-3.98,0.42-5.44,1.65c-6.56,5.49-14.44,8.47-22.09,11.88c-5.99,1.58-11.46,0.5-16.72-3.43
	c5.03-3.18,11.06-3.01,16.05-5.64c10.08-3.37,20.29-6.45,30.41-9.61c8.21-2.56,17.39-4.24,26.37-1.71c2.53,0.97,5.05,2,7.81,2.15
	c8.75,1.65,14.76,7.92,21.61,12.77c3.12,2.42,7.53,1.4,10.54,3.62c9.97,7.36,21.03,13.43,28.42,23.89
	c3.35,4.73,8.07,7.65,13.55,9.25c4.6,1.34,8.91,3.25,13.04,5.64c2.51,2.31,4.93,4.75,7.56,6.91c3.36,2.77,6.55,6.04,11.5,5.58
	c4.31-0.74,9.25,0.83,12.61-3.36c2.14-2.66,4.19-5.39,6.28-8.09c3.21-3.37,6.41-6.73,9.62-10.1c8.46-5.59,15.91-13.48,27.45-12.07
	c6.87,0.04,13.75,0.1,20.62,0.1c2.21,0,4.36-0.67,5.8-2.3c8.71-9.79,20.38-15.2,31.41-21.57c6.62-3.49,13.24-6.97,19.87-10.45
	c2.24,0.03,4.32-0.58,6.33-1.51c2.01-0.58,3.99-1.31,6.03-1.71c7.06-1.38,13.72-4.59,21.06-4.7c9.53,1.27,18.92,3.6,28.58,3.93
	c9.15,0.5,18.29,0.19,27.44-0.11c9.27-0.08,18.41,1.52,27.63,2.09c10.38,2.9,21.11,2.21,31.68,3.07c3.97,0.32,8.21,0.7,11.07,3.39
	c4.35,4.07,9.74,6.56,14.18,10.39c10.88,12.9,18.63,14.4,30.54,5.88c3.23-6.19,9.49-8.6,15.05-11.73
	c7.28-4.09,15.35-8.04,23.48-7.37c8.16,0.67,14.74-0.77,21.05-5.39c9.12-5.05,18.85-7.26,29.3-8.21c7.45-0.67,14.91-0.02,22.29-1.11
	C784.08,308.42,793.53,308.74,802.98,309.05z"/>
<path class="st2" d="M491.42,142.3c4.16,10.21,9.58,19.81,14.41,29.69c0.75,1.54,1.92,2.1,3.44,2.28c3.86,0.45,7.72,0.88,11.58,1.32
	c5.96,1,11.93,1.98,17.88,3.03c1.31,0.23,3.16-0.35,3.46,1.85c-8.03,7.31-15.9,14.78-23.2,22.84c-2.55,1-1.99,3.03-1.65,4.98
	c1.62,9.18,3.25,18.35,4.87,27.53c-0.22,1.56,1.25,3.2-0.19,4.71c-3.67-1.9-7.33-3.8-11-5.7c-5.79-3.05-11.58-6.1-17.37-9.15
	c-1.38-1.38-2.9-1.95-4.76-0.95c-6.08,3.27-12.56,5.8-18.16,9.94c-2.58,0.78-5,1.89-7.05,3.68c-0.73,0.26-1.56,0.38-2.17,0.81
	c-3.35,2.33-3.39,0.03-3.41-2.37c2.3-9.4,4.01-18.91,4.98-28.54c1.82-2.78,0.02-4.43-1.81-6.19c-7.69-7.43-15.33-14.91-22.99-22.37
	c0.17-0.19,0.25-0.41,0.24-0.66c8.51-1.09,17.03-2.12,25.41-3.98c1.96-0.14,3.92-0.24,5.87-0.44c2.27-0.23,4.45-0.37,5.64-3.01
	c2.93-6.54,6.1-12.97,9.17-19.45c1.4-2.64,2.75-5.29,4.21-7.89C489.37,143.27,489.55,141.6,491.42,142.3z"/>
<path class="st2" d="M409.95,203.56c4.11-0.88,8.23-1.75,13.45-2.86c-2.63,6.28-4.57,11.98-7.35,17.22
	c-2.5,4.7-2.29,8.52,1.22,12.41c1.52,1.68,2.74,3.63,4.09,5.46c1.21,2.12,2.45,4.22,3.61,6.36c0.59,1.1,2.1,2.17,1.35,3.41
	c-0.88,1.45-2.67,0.61-4.04,0.52c-3.9-0.25-7.78-0.65-11.68-0.99c-5.86-1.79-10.65-1.1-14.31,4.67c-2.95,4.66-6.75,8.77-10.18,13.13
	c-0.61,0.1-1.23,0.19-1.84,0.29c-0.35-1.7-0.29-3.5-1.33-5.01c-1.09-5.1-2.35-10.17-3.2-15.31c-0.55-3.35-2.31-4.95-5.4-6.05
	c-6.32-2.25-12.5-4.89-19.75-7.77c6.34-3.85,11.45-7.35,16.92-10.16c4.19-2.15,6.23-4.93,5.44-9.62c0.47-5.26,0.96-10.52,1.39-15.79
	c0.16-1.98,0.3-3.79,2.94-1.96c3.3,2.89,7.1,5.37,9.79,8.75C396.58,207.19,402.89,206.86,409.95,203.56z"/>
<path class="st2" d="M559.67,207.53c-0.59-2.12-1.17-4.25-1.94-7.04c7.09,1.7,13.63,3.26,20.18,4.83c3,1.62,5.37,1.01,7.85-1.41
	c4.33-4.22,9.04-8.05,13.53-12.11c2.01-1.82,2.95-1.66,3.17,1.21c0.38,5.05,0.89,10.09,1.35,15.14c0.42,2.87-1.28,6.37,2.44,8.27
	c6.38,4.05,12.76,8.11,19.81,12.59c-5.12,2.2-9.4,4.03-13.67,5.87c-2.81,1.1-5.62,2.2-8.43,3.31c-2.34,0.47-2.19,2.56-2.57,4.19
	c-1.59,6.73-3.08,13.49-4.6,20.24c-0.52,0.2-1.03,0.4-1.55,0.6c-4.58-5.64-9.17-11.28-13.73-16.93c-1.2-1.49-2.52-2.52-4.56-1.69
	c-6.17-0.29-12.21,0.96-18.32,1.41c-1.25,0.09-2.83,0.75-3.67-0.34c-0.96-1.24,0.51-2.33,1.07-3.41c1.12-2.14,2.37-4.21,3.57-6.3
	c2.15-3.08,4.3-6.16,6.44-9.25c0.87-1.25,1.42-2.47,0.66-4.08C564.32,217.59,563.01,212.09,559.67,207.53z"/>
<path class="st2" d="M147.81,487.43c1.41-5.19,2.86-10.37,3.5-15.73c1-1.69,0.26-3.44,0.03-5.11c-0.52-3.75,1.16-6.42,3.8-8.73
	c4.83-0.76,9.11,0.17,12.41,4.06c1.99,4.36,1.92,8.83,0.7,13.35c-1.35,5.01-2.72,10.02-4.08,15.03c-2.21,9.09-4.42,18.17-6.63,27.26
	c-2.25,7.11-3.84,14.37-4.31,22.03c3.7-6.8,7.4-13.6,11.11-20.4c5.56-9.56,11.12-19.12,16.69-28.68c1.35-1.44,2.25-3.15,2.87-5.01
	c2.46-3.21,4.73-6.58,7.42-9.59c4.49-5.04,9.9-5.26,14.5-0.98c1.71,1.59,2.63,3.67,3.75,5.64c0.04,1.58,0.08,3.17,0.12,4.75
	c-0.67,1.25-0.78,2.59-0.56,3.97c-3.04,9.64-4.23,19.69-6.41,29.52c-2.81,9.93-5.2,19.94-6.54,30.15c0.49,0.2,0.99,0.39,1.48,0.59
	c4.85-8.59,9.7-17.18,14.56-25.77c1.12-1.96,2.24-3.92,3.37-5.87c5.29-9.27,11.8-17.82,16.26-27.57c3.75-4.39,6.45-9.43,8.98-14.57
	c3.3-4.19,5.83-8.84,8.33-13.53c2.29-3.51,4.59-7.01,6.88-10.53c3.14-4.81,7.31-7.18,13.17-5.64c6.02,3.49,8.09,8.9,7.55,15.57
	c-1.81,9.55-3.62,19.1-5.44,28.66c-1.74,4.72-2.48,9.67-3.37,14.58c-0.91,4.65-1.83,9.31-2.74,13.96
	c-2.52,9.02-3.96,18.23-4.83,27.54c-1.25,6.48-1.39,13-0.28,19.5c1.96,11.51,9.72,15.09,20,9.32c3.13-1.46,7.87-2.67,7.07-6.6
	c-1.5-7.44-1.11-14.82-1.29-22.24c1.72-9.94,5.03-19.36,9.4-28.43c0.78-1.35,1.55-2.69,2.33-4.04c0.07-0.34,0.14-0.67,0.21-1.01
	l0.05,0.29c5.62-8.13,11.74-15.85,18.84-22.76c10.66-8.99,22.25-16.23,36.11-19.18c10.31-1.44,20.18-0.25,29.37,4.94
	c5.12,3.68,9.07,8.32,11.67,14.08c0.37,3.93-0.45,7.63-1.67,11.38c-2.09,6.4-4.34,12.82-4.15,19.73c-1.79,0.94-1.33,2.84-1.65,4.29
	c-2.4,10.67-3.78,21.47-4.59,32.38c-0.51,6.98-0.45,13.4,7.15,16.78c-1.2,3.8-5.02,4-7.78,5.66c-5.06,0.34-9.39-0.88-12.05-5.66
	c-2.31-8.15-0.97-16.46-1.21-24.93c-5.65,7.84-10.91,15.87-17.78,22.58c-7.06,6.89-15.43,11.51-24.96,14.03
	c-6.05,0.26-12.1,0.67-18.08-0.81c-5.04-1.25-9.71-3.27-13.14-7.24c-2.37-2.74-3.93-2.37-6.1,0.16
	c-5.16,6.02-11.33,10.42-19.6,10.95c-16.22-1.51-22.33-7.2-24.66-22.58c-1.04-6.86-0.55-13.69-0.29-20.54
	c1.42-9.53,2.84-19.07,4.25-28.6c2.54-9.04,4.14-18.28,5.82-27.51c1.49-7.03,3.37-14,4.14-21.16c-0.4-0.18-0.8-0.35-1.21-0.53
	c-4.33,7.16-8.65,14.32-12.98,21.48c-1.71,2.97-3.42,5.94-5.13,8.92c-4.15,6.03-8.24,12.09-11.48,18.68
	c-10.97,17.92-22.77,35.37-31.53,54.55c-1.6,3.5-3.81,5.5-7.52,6.09c-1.93,0.3-3.83,0.81-5.74,1.22c-3.12-1.63-3.23-4.57-3.45-7.56
	c-0.64-8.77,1.54-17.2,3.02-25.72c1.15-3.16,1.85-6.43,2.22-9.77c2.09-5.72,3.51-11.58,4.01-17.66c2.46-9.27,4.33-18.62,3.88-28.38
	c-4.19,4.79-7.48,9.92-10.03,15.52c-2.56,3.05-4.47,6.49-6.05,10.12c-6.52,9.72-12.45,19.78-17.9,30.13
	c-5.57,9-11.23,17.95-13.15,28.62c-3.46,12.02-10.64,14.58-18.76,6.67c0.03-0.9,0.07-1.79,0.1-2.69
	c3.39-10.65,5.14-21.69,7.74-32.53c2.26-9.18,4.52-18.37,6.79-27.55c2.3-9.49,4.59-18.97,6.89-28.46c0.06-0.64,0.12-1.29,0.17-1.93
	C147.54,488.09,147.67,487.76,147.81,487.43z M352.76,477.63c-9.2,1.79-17.46,5.54-24.56,11.72c-1.01,0.85-2.02,1.7-3.03,2.55
	c-8.44,7.65-15.28,16.48-19.98,26.91c-4.74,8.62-7.78,17.74-8.04,27.67c-0.79,7.2,0.55,14.04,3.88,20.41
	c2.21,4.23,5.31,7.74,10.1,9.26c4.43,2.78,9.18,3.01,14.11,1.73c3.3-0.18,6.38-1.04,9.14-2.91c7.46-3.08,13.6-7.86,18.46-14.31
	c4.03-4.25,7.42-8.94,9.91-14.25c5.55-8.43,9.54-17.55,12.1-27.31c3.32-9.32,4.92-18.92,4.63-28.81c-0.2-3.31-2.03-5.81-4.39-7.8
	C368.54,476.95,360.94,475.84,352.76,477.63z"/>
<path class="st2" d="M438.12,652.4c-6.64,3.21-13.43,5.55-21.01,5.22c-13.47-0.57-18.83-7.55-15.48-20.59c0.52-2.04,1.33-4,2.01-6
	c2.19-3.95,5.41-7.32,6.76-11.76c5.09-5.23,10.19-10.45,15.28-15.68c11.97-10.36,25-19.07,39.52-25.47c1.74-0.44,3.67-0.54,5.16-1.4
	c1.79-1.04,5.02,0.68,5.49-2.81c3.67-11.29,4.11-22.95,4.19-34.77c-5.3,7.54-10.56,14.88-16.34,21.83
	c-4.54,4.28-9.09,8.56-13.63,12.85c-7.94,5.12-15.89,10.34-25.7,10.93c-4.83,0.29-9.7-0.05-14.55-0.1
	c-5.53-2.69-11.21-5.17-15.3-10.05c-5.48-8.85-6.64-18.59-6.15-28.76c0.45-9.21,2.8-18.04,4.81-26.95
	c3.78-10.22,8.33-20.07,13.75-29.52c1.72-1.68,2.85-3.75,3.93-5.86c6.01-7.74,12.9-14.6,20.57-20.68
	c9.81-6.7,20.44-11.15,32.45-11.85c10.25,0.25,19.62,2.94,27.43,9.92c0.66,0.68,1.31,1.36,1.97,2.04
	c6.3,8.04,10.9,16.74,10.56,27.35c-3.34,8.23-5.08,16.88-6.57,25.58c-0.35,1.08-0.86,2.14-1.03,3.25
	c-2.36,15.33-4.68,30.67-7.01,46.01c-1.14,2.16-1.2,4.56-1.57,6.89c-3.08,9.71-6.17,19.43-9.25,29.14
	c-4.08,8.51-8.09,17.07-13.25,25.02c-0.82,1.16-1.63,2.33-2.45,3.49C455.63,638.45,448.08,646.73,438.12,652.4z M437.8,602.6
	c0,0-0.27,0.2-0.27,0.2c-10.18,7.68-19.15,16.44-25.02,27.98c-3.29,4.65-4.99,9.64-1.91,14.96c2.28,3.94,8.48,5.42,14.64,3.65
	c5.51-1.58,10.58-4.12,14.52-8.48c3.52-2.16,6.3-5.07,8.59-8.47c7.81-7.08,12.34-16.33,16.85-25.58c2.65-5.43,5.21-10.87,6.15-16.96
	c0.46-3-0.62-3.95-3.39-3.63c-1.46,0.17-2.93,0.33-4.17,1.26C453.64,589.97,445.65,596.17,437.8,602.6z M486.38,490.31
	c1.54-9.55-1-17.75-7.95-24.61c-7.38-7.29-19.37-9.05-27.92-3.93c-4.92,0.55-8.55,3.58-12.28,6.41c-8.48,5.85-14.9,13.6-20.48,22.13
	c-3.62,5.93-7.21,11.87-8.94,18.7c-1.1,3.26-2.19,6.53-3.29,9.79c-3.3,8.94-4.03,18.19-3.4,27.61c0.36,8.08,1.32,15.97,6.65,22.59
	c0.25,0.41,0.43,0.88,0.76,1.21c7.31,7.37,16.74,7.97,28.74,1.83c6.73-2.53,12.21-6.93,17.06-12.02
	c11.64-12.2,19.89-26.57,26.16-42.15C485,509.02,491.14,500.63,486.38,490.31z"/>
<path class="st2" d="M671.59,433.21c-2.39,9.54-4.77,19.08-7.16,28.62c-1.21,3.57-2.41,7.14-3.62,10.72
	c-2.41,5.93-4.82,11.86-7.23,17.78c-5.86,10.84-11.36,21.92-20.64,30.44c-3.98,2.25-7.87,4.83-12.37,5.83
	c-6.09,1.35-8.7,5.22-9.23,11.08c-0.27,2.92-1.03,5.81-0.5,8.78c-0.48,3.76-0.17,7.51,0.39,11.23c1.01,6.74,2.63,13.19,8.78,17.33
	c4.06,3.76,8.65,4.96,13.92,2.88c2.88-0.36,5.45-1.49,7.84-3.1c10.92-5.73,16.91-15.39,21.07-26.5c1.61-2.41,2.84-5.6,6.6-2.31
	c1.1,0.97,1.56-0.38,1.75-1.35c1.74-8.91,3.47-17.83,5.21-26.74c2.68-9.23,5.05-18.56,8.99-27.37c1.87-2.67,3.74-5.34,5.61-8.01
	c0.67-0.44,1.34-0.88,2.01-1.33c2.86-1.94,6.22-3.01,9.11-1.13c3.09,2.01,0.06,4.99-0.03,7.55c-10.22,18.37-15.8,38.31-19.86,58.76
	c-0.08,0.64-0.15,1.28-0.23,1.92c-0.12,0.34-0.25,0.68-0.37,1.02c-1.42,5.17-2.68,10.38-2.52,15.78c0.09,2.91,0.28,5.98,4.01,6.86
	c1.89,0.82,3.85,0.32,5.79,0.32c3.84,0,5.52,1.64,3.82,5.53c-0.92,0.98-1.83,1.96-2.75,2.95c-3.52,2.55-7.46,3.87-11.81,3.9
	c-1.5-0.75-3.04-1.34-4.78-1.1c-0.29-0.31-0.59-0.62-0.88-0.93c-0.84-2.6-1.68-5.2-2.53-7.8c-1.23-7.34-0.41-14.74-0.24-23.44
	c-3.28,5.27-5.84,9.38-8.39,13.48c-2.63,2.81-5.27,5.61-7.9,8.42c-6.08,4.57-12.44,8.63-19.79,10.89c-4.54,0.34-9.04,1.1-13.63,0.68
	c-5.26-0.47-9.62-2.78-13.58-6.08c-1.21-2.02-2.43-4.04-3.64-6.06c-1.89-7.32-2.57-14.76-1.97-22.29
	c0.84-10.53,1.76-21.05,2.64-31.57c2.67-4.5,2.4-9.72,3.55-14.59c1.44-4.56,2.71-9.16,3.33-13.92c2.64-9.51,5.28-19.02,7.92-28.53
	c3.05-8.86,6.1-17.71,9.15-26.57c2.53-6.21,5.05-12.41,7.58-18.62c2.53-3.28,4.23-7.03,5.89-10.78c2.5-3.43,4.98-6.87,7.51-10.28
	c3.56-4.79,8.58-7.47,14.02-9.5c8.41,0.63,10.77,2.78,12.27,11.52c0.41,2.39,0.47,4.85,0.69,7.27
	C675.26,414.46,673.3,423.81,671.59,433.21z M665.34,404.84c0.19-2.54-0.14-4.95-1.8-7.02c-1.88-3.3-4.4-1.96-6.55-0.62
	c-3.03,1.89-5.26,4.63-6.82,7.87c-5.61,8.61-8.24,18.48-11.81,27.95c-2.35,5.16-4.31,10.45-5.42,16.03
	c-2.11,3.96-3.17,8.28-4.25,12.59c-3.23,9.38-6.16,18.84-7.72,28.66c-2.57,7.12-3.45,14.59-4.48,22.01
	c-0.27,1.96-1.43,4.4,0.92,5.85c2.42,1.5,5.14,1.19,7.48-0.22c3.79-2.3,7.04-5.24,9.15-9.25c4.52-5.35,7.33-11.66,10.06-18.01
	c4.39-9.29,8.05-18.84,10.67-28.79c2.93-9.53,6.45-18.92,6.96-29.03l-0.19,0.06c1.37-1.11,1.15-2.61,0.98-4.09l-0.01,0.14
	C665.29,421.14,665.83,413.05,665.34,404.84z"/>
<path class="st2" d="M795.82,461.89c3.47-1,6.46-2.96,9.56-4.7c8.48-3.05,17.11-5.29,26.22-5.08c7.23,1.27,14.49,2.77,19.99,8.01
	c3.1,2.95,5.58,3.26,8.55,0.32c3.49-1.44,6.56-0.37,9.49,1.57c-3.89,5.67-8.32,11.06-9.23,18.26c-0.42,3.36-1.68,6.62-1.29,10.08
	c-0.2,0.95-0.39,1.9-0.59,2.85c-0.96,4.12-2.57,7.75-7.19,8.87c-2.88,0.7-4.82,0.15-4.48-3.48c0.26-2.74,0.29-5.5,0.42-8.24
	c1.66-14.45-4.26-25.2-15.75-28.61c-11.15-3.18-20.79,0.19-29.66,6.85c-7.24,5.63-13.72,11.77-14.43,21.74
	c-1.24,3.81-0.44,7.49,1.24,10.88c3.05,6.13,8.55,9.64,14.4,12.67c3.93,2.68,8.21,4.57,12.8,5.8c4.79,3.03,10.29,4.36,15.47,6.44
	c4.49,2.21,9.08,4.24,13.45,6.67c5.72,3.19,10.96,7,13.13,13.67c0.99,12.71-6.16,20.72-15.8,27.28c-3.64,1.8-7.28,3.61-10.92,5.41
	c-9.23,2.7-18.62,4.56-28.17,5.61c-9.58-0.25-19.2-0.2-28.51-3c-5.67-3.35-11.29-5.06-17.69-1.38c-2.86,1.64-6.43,2.03-9.68,2.99
	c-9.2,1.33-18.41,1.54-27.65,0.47c-7.05-1.91-13.78-4.49-19.52-9.17c-7.48-8.28-7.66-18.05-5.82-28.25
	c2.78-9.46,7.27-18.21,11.11-27.24c6.33-10.86,12.71-21.69,20.31-31.73c6.33-8.35,13.63-15.43,24.35-17.78
	c1.32,0,2.64,0.01,3.97,0.01c0.64,0.09,1.28,0.19,1.92,0.28c10.41,2.82,15.12,10.31,16.69,20.37c-0.36,10.33-3.3,19.68-10.41,27.45
	c-4.65,4.26-9.79,7.79-15.41,10.64c-8.86,3.09-18.06,3.06-27.27,3.06c-3.15,0.26-7.17-3.38-9.22,1.79
	c-1.67,4.22-3.2,8.52-3.54,13.11c-2.61,12.26,1.17,21.1,11.48,26.87c0.9,0.93,1.94,1.58,3.27,1.69c0.55,0.33,1.07,0.8,1.66,0.99
	c9.56,3.01,18.94,1.9,28.34-0.96c3.16-0.96,4.58-1.59,2.97-5.48c-2.09-5.09-0.04-10.01,3.81-11.95c4.27-2.16,8.17-1.07,11.66,3.87
	c2.64,3.73,3.49,0.55,4.9-0.88c1.81-1.05,3.53-2.34,5.46-3.08c2.2-0.84,4.59-0.79,6.13,1.43c1.49,2.14,0.17,4.03-1.02,5.77
	c-1.4,2.05-3.44,3.39-5.57,4.6c-3.3,1.88-2.75,3.55,0.37,4.89c1,0.43,2.15,0.53,3.23,0.79c16.77,3.53,32.97,1.91,48.54-5.38
	c4.68-1.56,8.25-4.67,10.95-8.63c2.92-4.27,4.13-8.87,0.77-13.61c-2.7-4.66-7.48-6.36-12-8.43c-8.57-4.22-17.68-6.99-26.68-10.08
	c-7.41-3.67-15.16-6.77-21.36-12.52c-2.73-3.5-5.2-7.16-7.1-11.19c-1.94-7.16-1.42-14.14,1.44-20.97
	C781.78,475,787.95,467.76,795.82,461.89z M717.42,517.84c-2.96,5.31-2.96,5.31,2.17,6.51c3.9,0.43,7.78,1.14,11.69,1.23
	c18.29,0.41,33.14-17.27,29.91-35.46c0.14-2.17-0.45-4.19-1.24-6.17c-2.41-6.06-6.28-8.21-11.98-6.69
	c-5.96,2.16-9.28,7.18-12.9,11.88c-6.3,7.72-11.83,15.91-15.63,25.18C718.18,515.15,717.65,516.41,717.42,517.84z"/>
<path class="st2" d="M502.61,517.94c5.14-9.82,11.27-18.95,19.01-26.94c8.24-7.65,17.11-14.38,27.62-18.7
	c9.29-3.25,18.76-4.78,28.57-2.85c6.79,1.9,13.09,4.72,18.25,9.71c3.25,3.14,5.1,7.05,6.57,11.21c-0.39,2.06-0.62,4.16-1.19,6.16
	c-2.07,7.34-4.47,14.6-5.31,22.24c-4.01,14.73-6.37,29.68-5.93,45c0.09,3.23,0.51,6.26,4.61,6.98c2.4,0.43,2.45,2.26,1.95,4.19
	c-8.28,4.57-12.65,4.44-18.3-0.55c0,0,0.14-0.07,0.14-0.07c-4.23-8.2-1.69-17.16-2.66-27.29c-6.38,10.51-12.68,19.31-20.88,26.53
	c-2.7,1.92-5.39,3.84-8.09,5.75c-8.14,4.36-16.73,6.85-26.05,6.4c-8.72-1.22-16.19-4.7-21.5-12.03c-4.3-7.23-5.69-15.08-5.27-23.4
	C494.71,538.9,498.5,528.39,502.61,517.94z M513.69,516.06c-6.09,11.32-9.5,23.19-7.48,36.18c0.99,10.09,4.37,18.64,14.66,22.72
	c11.79,4.01,21.39-0.8,30.49-7.58c8.06-5.15,13.78-12.37,18.22-20.71c9.19-13.98,14.46-29.54,18.17-45.68
	c0.79-3.45,1.16-7.11,0.06-10.68c-0.32-5.55-2.84-9.68-7.87-12.18c-10.45-5.65-20.58-3.84-30.57,1.31c-6.01,2.55-11.39,6.05-16,10.7
	c-6.08,4.99-11.16,10.83-14.93,17.77C516.38,510.35,514.57,512.94,513.69,516.06z"/>
<path class="st2" d="M718.48,444.12c-4.42,4.56-9.98,5.83-16.06,5.39c-3.13-0.23-6.41-0.71-7.79-4c-1.33-3.15,0.1-6.03,1.97-8.61
	c0.66-0.91,1.53-1.68,2.3-2.51c6.43-3.47,12.93-4.96,19.6-0.6c0.02,0.23,0.15,0.39,0.37,0.46
	C720.74,437.62,719.98,440.88,718.48,444.12z"/>
<path class="st2" d="M293.79,742.97c1.6-3.62,3.19-7.24,4.79-10.86c1.56-3.4,3.2-6.76,4.67-10.2c1.56-3.65,4.7-2.27,7.21-2.18
	c2.84,0.11,1.72,2.67,1.75,4.22c0.17,6.99,0.19,13.99,0.26,20.98c-0.09,5.36-0.21,10.73-0.27,16.09c-0.02,1.94-0.08,3.53-2.77,3.51
	c-2.63-0.02-2.77-1.52-2.76-3.51c0.02-5.69-0.06-11.39-0.1-17.08c0-4.84,0-9.69,0-14.53c-0.33-0.01-0.66-0.02-1-0.04
	c-1.76,4.4-3.51,8.79-5.27,13.19c-1.89,3.83-4.11,7.51-5.1,11.73c-1.05,2.4-2.11,4.79-3.16,7.19c-0.58,1.33-0.84,2.87-2.8,2.94
	c-2.01,0.07-2.31-1.54-2.89-2.82c-2.67-5.95-5.3-11.93-7.94-17.9c-1.42-4.58-3.24-8.97-6.1-14.31c-0.91,5.99-0.75,10.73-0.31,15.47
	c-0.08,5.33-0.3,10.67-0.18,16c0.06,2.69-0.95,3.88-3.53,3.96c-2.29-0.72-2.01-2.6-2.03-4.39c-0.06-5.52-0.17-11.04-0.26-16.56
	c0.08-6.78,0.14-13.56,0.25-20.35c0.03-1.68-0.57-3.72,1.95-4.3c5.06-0.47,7.35,2.3,8.98,6.78c2.11,5.81,4.97,11.35,7.5,17
	c1.38,3.56,2.76,7.12,4.57,11.78C291.06,750.09,292.42,746.53,293.79,742.97z"/>
<path class="st2" d="M640.59,716.79c0.09,9.05,0.19,18.1,0.28,27.16c-0.06,5.22-0.36,10.46-0.11,15.67
	c0.18,3.77-0.87,5.61-4.85,4.99c-0.1-0.96-0.19-1.92-0.29-2.88c-0.03-0.26-0.06-0.51-0.09-0.77c-0.27,0.18-0.54,0.37-0.82,0.55
	c-2.53,1.87-5.21,3.33-8.44,3.65c-10.84,1.09-17.58-7.01-16.27-19.6c4.03-11.23,12.49-14.44,23.65-8.97c3.33,1.1,1.81-1.7,1.88-2.65
	c0.42-5.81-0.48-11.66,0.61-17.45C637.64,716.58,639.12,716.69,640.59,716.79z M616.82,743.71c-3.15,6.6-1.33,13.46,4.35,15.94
	c4.14,1.8,8.05,1.32,11.27-2c3.65-3.76,3.91-9.84,0.83-14.89C628.69,736.43,621.26,736.86,616.82,743.71z"/>
<path class="st2" d="M465.68,763.67c-0.9-2.82-2.21-0.71-3.15-0.15c-3.31,1.99-6.84,2.18-10.41,1.27c-3.76-0.96-6.45-3.2-6.89-7.33
	c-0.45-4.24,1.48-7.27,5.17-9.16c3.27-1.68,6.9-1.78,10.48-2.15c1.41-0.14,3.66,1.09,4.08-1.3c0.44-2.45-0.67-4.64-3.08-5.55
	c-3.53-1.33-7.13-1.11-10.34,0.94c-1.57,1.01-2.64,1.75-3.88-0.33c-1.28-2.14,0.21-3.02,1.59-3.86c4.65-2.85,9.69-2.36,14.75-1.55
	c4.56,2.36,6.21,6.31,6.2,11.22c0,4.86-0.09,9.74,0.21,14.59C470.66,764.35,469.31,765.44,465.68,763.67z M460.47,750.5
	c-2.62,0.05-5.26,0.18-7.53,1.67c-3.12,2.05-3.21,5.66-0.28,7.64c3.65,2.47,10,0.68,11.82-3.34
	C466.39,752.28,465.03,750.24,460.47,750.5z M465.68,762.67c-0.15-0.43-0.24-0.69-0.33-0.95c-0.32,0.19-0.68,0.33-0.92,0.59
	c-0.08,0.08,0.17,0.66,0.22,0.65C465,762.92,465.33,762.78,465.68,762.67z"/>
<path class="st2" d="M577.89,761.76c-6.53-8.18-5.96-16.28,0.29-24.31c11.56-6.47,19.28-4.53,26.03,6.56
	c0.45,3.57,0.67,7.14,0.1,10.72c-2.8,6.29-7.32,10.14-14.47,10.54C585.38,765.53,581.66,763.63,577.89,761.76z M578.96,749.22
	c-0.08,6.62,4.09,11.41,10.09,11.58c5.9,0.18,10.47-4.27,10.21-10.68c-0.27-6.59-3.73-11.64-9.92-11.5
	C583.25,738.77,579.03,742.89,578.96,749.22z"/>
<path class="st2" d="M350.17,743.08c0.72,5.13,1.72,10.3-1.18,15.12c-4.57,7.58-14.18,9.15-23.64,3.93
	c-2.44-2.71-4.42-5.7-5.37-9.28c-1.02-6.41,1-11.77,5.58-16.25C336.5,731.42,344.51,733.52,350.17,743.08z M327.94,742.3
	c-4.55,6.27-3.05,14.52,3.25,17.34c4.26,1.91,8.25,1.42,11.64-1.96c3.54-3.52,4-8.44,1.39-13.88
	C339.97,737.3,333.1,736.68,327.94,742.3z"/>
<path class="st2" d="M492.64,734.85c1.96-0.23,4.07-1.52,5.04,1.8c0.64,2.21,1.7,0.14,2.38-0.35c3.43-2.46,7.19-3.02,11.19-1.97
	c3.92,1.02,5.94,3.81,6.61,7.67c1.16,6.65,0.39,13.36,0.62,20.04c0.06,1.86-0.81,2.6-2.67,2.59c-1.95-0.01-2.55-1-2.55-2.75
	c0.01-4.9,0.07-9.8-0.07-14.7c-0.17-6.09-2.3-8.58-7.05-8.54c-4.67,0.04-7.77,3.24-8.02,8.66c-0.19,4.24-0.31,8.51,0,12.73
	c0.35,4.74-1.75,5.34-5.52,3.95C492.62,754.27,492.63,744.56,492.64,734.85z"/>
<path class="st2" d="M357.85,745c0.14-2.6,0.32-5.19,0.39-7.79c0.05-1.69,0.42-2.82,2.48-2.76c1.88,0.06,2.6,0.88,2.58,2.71
	c-0.03,2.28,0.11,4.56,0.18,6.85c-0.04,2.93-0.03,5.86-0.15,8.79c-0.16,4.11,1.27,7.13,5.62,7.83c4.4,0.71,7.17-1.64,8.65-5.55
	c1.35-3.59,1.16-7.36,0.75-11.11c0.05-2.09,0.23-4.18,0.13-6.26c-0.11-2.14,0.54-3.43,2.83-3.52c2.23,0.44,2.54,2,2.47,3.95
	c-0.07,1.9,0.1,3.81,0.17,5.72c-0.05,5.72-0.28,11.45-0.06,17.16c0.11,2.83-0.96,3.84-3.52,3.9c-1.63-0.43-1.16-3.97-4.89-1.87
	c-9.68,5.44-15.66,2.13-17.04-7.39C357.92,752.14,358.03,748.55,357.85,745z"/>
<path class="st2" d="M398.7,743.8c-2.46,5.24-1.01,10.85-1.55,16.26c-0.19,1.93,0.71,4.61-2.81,4.4c-3.17-0.2-2.18-2.7-2.24-4.42
	c-0.2-5.34-0.24-10.68-0.35-16.02c0.08-2.29,0.15-4.57,0.23-6.86c0.04-1.19,0.17-2.37,1.69-2.54c1.16-0.13,2.62-0.19,2.9,1.16
	c0.55,2.58,1.45,1.75,2.84,0.68c4.01-3.08,8.47-3.54,12.93-1.28c4.34,2.2,5.32,6.34,5.32,10.83c0.01,4.59,0.13,9.17,0,13.75
	c-0.05,1.87,1.03,4.71-2.47,4.78c-3.91,0.08-2.62-3.03-2.71-5.01c-0.19-4.58,0.04-9.17-0.19-13.75c-0.16-3.19-0.92-6.46-4.82-6.99
	C403.45,738.25,399.89,739.1,398.7,743.8z"/>
<path class="st2" d="M549.43,719.31c1.76,1.32,1.22,3.25,1.23,4.97c0.08,10.27,0.24,20.54,0.07,30.8c-0.06,3.45,1.01,4.63,4.42,4.39
	c3.4-0.24,6.86-0.2,10.26,0.07c1.92,0.15,5.19-1.51,5.26,2.32c0.07,4.23-3.49,2.46-5.5,2.58c-5.36,0.34-10.74,0.27-16.11,0.37
	c-2.43-0.26-4.04-0.77-3.97-4.05c0.26-12.39,0.25-24.79,0.05-37.18C545.07,720.15,546.66,719.39,549.43,719.31z"/>
<path class="st2" d="M438.28,734.23c1.45,0.36,3.39-0.08,3.32,2.49c-0.07,2.56-1.88,2.36-3.41,2.19c-3.91-0.42-5.46,1.09-4.49,4.97
	c-0.08,4.04-0.25,8.08-0.21,12.12c0.02,3.11,1.53,4.86,4.88,4.41c1.13,0.49,3.1-1.35,3.48,1.1c0.4,2.6-1.24,3.69-3.53,4.08
	c-8.52-1.12-9.77-2.55-9.84-11.32c-0.03-3.6-0.05-7.21,0.03-10.81c0.06-2.64,0.09-5.06-3.68-4.73c-1.26,0.11-2.22-0.46-2.29-1.94
	c-0.07-1.38,0.56-2.41,1.91-2.27c4.14,0.41,3.95-2.29,3.91-5.04c-0.03-1.79-0.26-3.82,2.53-3.76c2.76,0.06,2.59,2.11,2.42,3.86
	C432.92,733.45,434.26,735.22,438.28,734.23z"/>
<path class="st2" d="M483.95,749.79c0,3.92,0,7.83,0,11.75c0,1.6-0.27,2.92-2.37,2.91c-1.93-0.01-2.57-1.01-2.57-2.76
	c0.01-8.16,0.02-16.31,0.01-24.47c0-1.78,0.69-2.69,2.62-2.65c2.16,0.04,2.25,1.47,2.25,2.99c0.02,4.08,0.01,8.16,0.01,12.24
	C483.92,749.79,483.94,749.79,483.95,749.79z"/>
<path class="st2" d="M484.92,723.12c-0.29,2.18-1.41,3.73-3.72,3.59c-1.98-0.12-3.29-1.54-3.19-3.58c0.11-2.17,1.35-3.64,3.73-3.56
	C483.92,719.66,484.77,721.1,484.92,723.12z"/>
<path class="st2" d="M676.25,772.46c-3.25,4.81-8.08,6.71-13.59,7.37c-3.97-0.48-7.97-0.89-11.49-3.03
	c-1.56-0.95-3.68-1.74-2.47-4.34c1.28-0.5,1.74-2.56,3.63-1.91c0.22,0.62,0.56,1.08,1.31,1.02l-0.3,0.1
	c4.98,3.43,11.52,3.92,15.48,1.15c3.41-2.39,4.7-7.15,3.17-12.22c-4.03,4.27-9.05,4.83-14.42,4.03c-9.24-5.21-11.31-9.57-9.85-20.69
	c2.56-6.93,7.96-9.79,14.92-10.43c2.86,0.95,5.96,1.32,8.26,3.62c0.66,0.66,1.84,1.41,2.1-0.17c0.61-3.82,3.04-2.27,5.1-1.97
	c0.04,0.36,0.08,0.72,0.12,1.08c-0.01,2.62-0.01,5.24-0.02,7.86c-0.08,1.94-0.2,3.88-0.24,5.83
	C677.79,757.37,678.8,765.05,676.25,772.46z M660.5,759.69c6.7,0.99,10.69-1.48,12.14-7.51c1.32-5.48-1.77-11.38-6.86-13.07
	c-5.23-1.74-9.67,0.36-12.27,5.81C651,752.3,653.51,757.6,660.5,759.69z"/>
<path class="st2" d="M616.01,829.1c-2.46,4.06-5.59,7.3-10.39,8.51c-5.05,0.71-9.57-0.56-14.17-4.63c0,5.64,0.02,10.29-0.01,14.93
	c-0.01,1.72,0.45,3.69-2.42,3.79c-2.86,0.1-3.06-1.52-3.04-3.73c0.04-6.5-0.05-13.01-0.1-19.51c0.08-6.18,0.14-12.37,0.25-18.55
	c0.02-1.22-0.32-2.83,1.62-2.97c1.21-0.09,2.78-0.63,3.26,1.18c0.58,2.22,1.59,1.43,2.73,0.55c3.47-2.67,7.53-2.79,11.65-2.63
	C615.76,810.39,618.54,816.41,616.01,829.1z M594.41,829.78c2.91,3.36,6.54,4.4,10.58,2.66c4.08-1.75,6.43-4.98,6.37-9.6
	c-0.06-4.71-0.48-9.28-5.88-11.2c-5.58-1.75-9.19-0.82-11.94,3.08C590.2,819.48,590.51,824.91,594.41,829.78z"/>
<path class="st2" d="M577.75,832.16c-8.17,7.52-17.21,7.9-26.87,1.14c-1.64-2.31,0.59-2.87,1.75-3.96c1.94-1.82,3.06,0.01,4.39,0.92
	c5.1,3.82,9.74,3.75,14.22-0.22c3.65-4.8,2.82-8.92-2.41-11.32c-2.35-1.08-4.84-1.84-7.27-2.74c-8.92-3.31-10.6-5.61-10.86-14.94
	c2.04-5.4,5.62-8.94,11.48-10.17c5.27-1.11,10,0.12,14.63,2.42c0.63,1.15,2.39,1.98,1.07,3.7c-2,1.87-3.65,2.03-6.22,0.3
	c-4.6-3.1-10.34-1.73-13.69,2.51c-2.08,5.58-0.99,8.22,4.68,10.43c5.23,2.04,10.89,3.13,15.13,7.22c0.99,3.53,2.1,7.04,1.6,10.79
	C578.84,829.53,578.3,830.85,577.75,832.16z"/>
<path class="st2" d="M713.3,745.12c0.38,6.11,0.38,6.12-5.79,6.12c-4.57,0-9.14,0.07-13.7-0.11c-4.08-0.16-3.88,1.78-2.48,4.48
	c2.66,5.13,9.45,6.56,14.88,3.17c1.5-0.94,2.95-3.37,4.78-0.68c1.95,2.85-0.96,3.72-2.52,4.72c-5.62,3.61-11.5,2.78-17.38,0.6
	c-6.3-5.21-6.98-12.1-5.83-19.53c1.62-2.41,3.23-4.83,4.85-7.24C700.39,730.61,709.24,733.84,713.3,745.12z M698.58,746.91
	c0-0.01,0-0.02,0-0.03c1.95,0,3.91,0.06,5.86-0.01c3.64-0.14,4.41-1.74,2.44-4.91c-2.95-4.75-11.18-4.86-14.76-0.15
	c-0.97,1.28-2.29,2.78-1.48,4.36c0.77,1.5,2.65,0.58,4.03,0.71C695.97,747,697.28,746.91,698.58,746.91z"/>
<path class="st2" d="M634.91,805.76c9.95,1.23,12.52,4.19,12.59,14.4c0.02,2.78,0.13,5.55,0.19,8.33c-0.02,1.44,0.11,2.91-0.11,4.32
	c-0.23,1.48,1.3,3.64-1.59,4.24c-2.76,0.56-2.85-1.66-3.59-3.75c-2.36,3.02-5.47,3.86-8.54,4.78c-5.64-0.55-10.46-2.23-11.84-8.63
	c1.11-7.09,3.39-9.17,11.91-10.9c0.69-0.07,1.38-0.13,2.07-0.2c7.22,0.21,7.25,0.17,4.91-5.17c-1.62-2.81-4.28-2.6-6.93-2.39
	c-2.26-0.23-4.15,0.75-5.88,1.99c-1.52,1.08-2.32,0.2-3.25-0.81c-1.47-1.59-0.03-2.33,0.94-3.04
	C628.48,806.93,631.66,806.22,634.91,805.76z M636.85,822.44c-1.68,0.02-4.12,0.14-6.33,1.44c-2.05,1.2-2.98,2.94-2.61,5.32
	c0.35,2.21,1.79,3.41,3.81,4c4.03,1.17,8.64-1.07,10.09-4.86C643.65,823.52,642.73,822.23,636.85,822.44z"/>
<path class="st2" d="M392.82,828.45c0.01-9.46,0.02-18.93,0.03-28.39c0.11-1.13,0.45-2.29,0.28-3.38c-0.65-4.38,1.19-5.81,5.46-5.4
	c3.05,0.3,6.17-0.09,9.26-0.17c6.31,0.96,12.21,2.51,14.18,9.77c-0.2,4.14-0.86,8.08-4.7,10.6c-1.44,0.94-1.17,1.67,0.16,2.41
	c5.85,3.27,6.77,8.59,6.02,14.6c-2.95,6.27-8.73,7.68-14.79,8.63c-0.62,0.08-1.25,0.16-1.87,0.24c-4.28-0.03-8.57-0.07-12.85-0.1
	C392.18,834.5,393.71,831.31,392.82,828.45z M399.03,800c-0.13,12.97-2.34,10.73,9.72,10.5c6.04-1.08,7.74-3.58,6.5-9.57
	c-0.98-3.18-3.32-4.2-6.4-4.06c-2.38-0.15-4.75-0.29-7.13-0.44C399.01,796.26,398.32,797.61,399.03,800z M408.79,815.81
	c-10.05-0.54-10.06-0.54-9.97,9.33c0.01,1.12,0.12,2.24,0.18,3.36c-0.63,2.67,0.24,4.03,3.16,3.69c1.89-0.22,3.86,0.36,5.7-0.52
	c3.24,0.22,6.26-0.14,8.31-3.1C420.23,821.85,416.95,816.18,408.79,815.81z"/>
<path class="st2" d="M436.66,835.91c-2.91-1.98-5.04-4.65-6.66-7.74c-1.91-8.44-0.38-15.65,7.4-20.62
	c6.59-2.43,12.94-2.46,18.24,2.76c5.54,5.46,5.62,12.15,3.48,19.13C452.7,837.87,446.85,839.55,436.66,835.91z M453.13,828.53
	c4.03-8.09,0.82-16.78-6.57-17.7c-3.94-0.49-7.62,0.21-9.64,4.07c-2.55,4.86-3.22,9.82,0.46,14.55
	C442.51,834.87,448.29,834.53,453.13,828.53z"/>
<path class="st2" d="M495.34,837.36c-0.94-0.07-1.89-0.15-2.83-0.22c-0.27-1.2-0.54-2.4-0.83-3.7c-10.67,7.54-20.22,5.07-25.25-6.29
	c-0.16-0.52-0.33-1.04-0.49-1.56c-0.07-0.66-0.13-1.31-0.2-1.97c-0.53-15.82,14.15-21.86,24.36-14.69c0.53,0.82,1.06,1.63,1.39-0.11
	c-0.02-0.64-0.05-1.29-0.07-1.93c0.78-6.17-0.71-12.45,1.02-18.57c3.12-0.07,4.66,1.17,4.37,4.56c-0.21,2.36,0.13,4.77,0.23,7.16
	c-0.55,9.47-0.42,18.94-0.06,28.41c-0.22,2.94-0.44,5.88-0.66,8.82C495.98,837.23,495.66,837.26,495.34,837.36z M489.94,828.58
	c2.67-4.47,2.57-9.06,0.02-13.42c-1.97-3.37-5.29-4.66-9.2-4.44c-8.2,0.46-11.99,9.28-7.66,17.85
	C478.02,835,484.91,835.01,489.94,828.58z"/>
<path class="st2" d="M349.72,836.94c-11.1,2.16-16.02,0.14-20.49-8.43c-0.99-6.68,1.21-11.97,7.07-15.44
	c2.15-1.28,2.25-2.2,0.51-3.94c-2.17-2.17-2.96-5.03-3.1-8.06c1.8-9.24,7.19-12.09,17.75-9.39c3.23,2.26,4.93,5.39,5.34,9.28
	c-0.71,4.36-3.32,7.33-6.92,9.67c-0.9,0.58-3.17,1.01-1.78,2.66c2.5,2.98,4.57,7.16,8.24,8.05c2.05,0.5,3.03-4.1,4.6-6.32
	c0.38-0.53,0.6-1.19,1.03-1.67c1.42-1.6,3.42-1.69,4.89-0.69c1.48,1-0.15,2.34-0.69,3.37c-1.13,2.17-2.27,4.41-3.78,6.31
	c-2.39,3-1.92,5.25,1.19,7.2c1.86,2.18,3.73,4.36,5.8,6.79c-4.22,1.3-7.59,0.79-10.03-2.77c-1.68-2.44-3.1-2.8-5.13-0.25
	C353.04,834.76,351.24,835.74,349.72,836.94z M340.85,797.48c-2.42,3.49-1.72,8.58,1.9,10.38c3.52,1.74,5-1.74,6.91-3.7
	c0.79-0.81,1.26-1.92,1.06-3.15C349.92,795.14,345.97,793.73,340.85,797.48z M350.69,829.42c2.16-1.2,2.73-2.56,0.73-4.53
	c-1.97-1.94-3.78-4.06-5.65-6.11c-3.78-4.16-5.51-4.08-9,0.44c-2.92,3.78-2.54,7.7,1.13,11.76
	C343.18,834.31,345.9,833.98,350.69,829.42z"/>
<path class="st2" d="M522.31,812.82c0.61-1.32,1.32-2.6,1.81-3.96c0.83-2.32,2.78-2.28,4.43-1.77c2.65,0.82,0.77,2.64,0.34,3.9
	c-2.01,5.82-4.16,11.59-6.26,17.38c-1.51,2.46-2.51,5.12-3.08,7.94c-1.58,3.55-3.13,7.11-4.75,10.63
	c-1.99,4.34-5.57,5.59-10.05,5.06c-1.53-0.18-2.39-0.83-2.3-2.48c0.08-1.36,0.66-1.81,2.09-2.04c6.05-0.99,9.62-7.02,7.67-12.76
	c-0.73-2.14-1.72-4.2-2.59-6.29c-2.75-6.99-5.49-13.97-8.25-20.99c4.21-1.74,6.12-0.06,7.41,3.7c2.1,6.12,4.58,12.12,7.28,19.14
	C519,823.92,520.75,818.4,522.31,812.82z"/>
</svg>
